Fraunces-BoldOpMin.ufo
<glyph name="exclam" format="2">
  <advance width="263"/>
  <unicode hex="0021"/>
  <outline>
    <contour>
      <point x="136" y="738" type="curve" smooth="yes"/>
      <point x="199.0" y="738.0"/>
      <point x="230.0" y="706.0519480519481"/>
      <point x="230" y="656" type="curve" smooth="yes"/>
      <point x="230.0" y="639.3235294117648"/>
      <point x="227.8517948006985" y="613.0232400900109"/>
      <point x="225" y="593" type="curve" smooth="yes"/>
      <point x="178" y="263" type="line" smooth="yes"/>
      <point x="174" y="235"/>
      <point x="163.0" y="220.0"/>
      <point x="139" y="220" type="curve" smooth="yes"/>
      <point x="115.0" y="220.0"/>
      <point x="105" y="234"/>
      <point x="100" y="265" type="curve" smooth="yes"/>
      <point x="49" y="594" type="line" smooth="yes"/>
      <point x="45" y="620"/>
      <point x="44.0" y="638.3661971830986"/>
      <point x="44" y="657" type="curve" smooth="yes"/>
      <point x="44.0" y="708.0410958904109"/>
      <point x="86.0" y="738.0"/>
    </contour>
    <component base="period" xOffset="-5"/>
  </outline>
</glyph>
<glyph name="dollar" format="2">
  <advance width="533"/>
  <unicode hex="0024"/>
  <outline>
    <contour>
      <point x="271" y="0" type="curve" smooth="yes"/>
      <point x="416.0" y="0.0"/>
      <point x="503.0" y="81.0"/>
      <point x="503" y="177" type="curve" smooth="yes"/>
      <point x="503.0" y="246.0"/>
      <point x="454.0" y="316.0"/>
      <point x="314" y="363" type="curve" smooth="yes"/>
      <point x="197.91886550217737" y="401.35724444275877"/>
      <point x="159.0" y="432.8715596330275"/>
      <point x="159" y="482" type="curve" smooth="yes"/>
      <point x="159.0" y="536.8383838383838"/>
      <point x="207.0" y="571.0"/>
      <point x="266" y="571" type="curve" smooth="yes"/>
      <point x="324.0" y="571.0"/>
      <point x="360" y="536.6521739130435"/>
      <point x="360" y="492" type="curve" smooth="yes"/>
      <point x="360" y="466" type="line" smooth="yes"/>
      <point x="360" y="424"/>
      <point x="392" y="395"/>
      <point x="430" y="395" type="curve" smooth="yes"/>
      <point x="467" y="395"/>
      <point x="499" y="428"/>
      <point x="499" y="469" type="curve" smooth="yes"/>
      <point x="499.0" y="557.0"/>
      <point x="401.55023923444975" y="629.0"/>
      <point x="280" y="629" type="curve" smooth="yes"/>
      <point x="139.95918367346937" y="629.0"/>
      <point x="45.0" y="544.0"/>
      <point x="45" y="443" type="curve" smooth="yes"/>
      <point x="45" y="357"/>
      <point x="101" y="298"/>
      <point x="230" y="254" type="curve" smooth="yes"/>
      <point x="345.2460061751798" y="212.55187497208448"/>
      <point x="382.0" y="180.85321100917432"/>
      <point x="382" y="135" type="curve" smooth="yes"/>
      <point x="382.0" y="87.20689655172413"/>
      <point x="338.0" y="58.0"/>
      <point x="276" y="58" type="curve" smooth="yes"/>
      <point x="214.0" y="58.0"/>
      <point x="175" y="95.17721518987341"/>
      <point x="175" y="147" type="curve" smooth="yes"/>
      <point x="175" y="173" type="line" smooth="yes"/>
      <point x="175" y="216"/>
      <point x="144" y="244"/>
      <point x="106" y="244" type="curve" smooth="yes"/>
      <point x="68" y="244"/>
      <point x="37" y="212"/>
      <point x="37" y="170" type="curve" smooth="yes"/>
      <point x="37.0" y="77.0"/>
      <point x="143.0" y="0.0"/>
    </contour>
    <contour>
      <point x="254" y="265" type="line"/>
      <point x="254.0" y="81.0"/>
      <point x="213.0" y="39.0"/>
      <point x="213" y="-14" type="curve" smooth="yes"/>
      <point x="213.0" y="-60.0"/>
      <point x="242.90196078431373" y="-80.0"/>
      <point x="274" y="-80" type="curve" smooth="yes"/>
      <point x="308.9183673469388" y="-80.0"/>
      <point x="332.0" y="-58.0"/>
      <point x="333" y="-14" type="curve" smooth="yes"/>
      <point x="334.0" y="39.0"/>
      <point x="292.0" y="80.0"/>
      <point x="292" y="265" type="curve"/>
    </contour>
    <contour>
      <point x="290" y="355" type="line"/>
      <point x="290.0" y="551.0"/>
      <point x="332.0" y="592.0"/>
      <point x="332" y="648" type="curve" smooth="yes"/>
      <point x="332.0" y="692.0"/>
      <point x="300.9019607843137" y="714.0"/>
      <point x="271.0" y="714" type="curve" smooth="yes"/>
      <point x="238.6" y="714.0"/>
      <point x="211.0" y="694.0"/>
      <point x="211" y="650" type="curve" smooth="yes"/>
      <point x="211.0" y="597.0"/>
      <point x="254.0" y="555.0"/>
      <point x="253" y="355" type="curve"/>
    </contour>
  </outline>
</glyph>
<glyph name="seven" format="2">
  <advance width="486"/>
  <unicode hex="0037"/>
  <outline>
    <contour>
      <point x="394" y="554" type="curve" smooth="yes"/>
      <point x="317" y="462" type="line" smooth="yes"/>
      <point x="153" y="266"/>
      <point x="136" y="180"/>
      <point x="136" y="103" type="curve" smooth="yes"/>
      <point x="136" y="30"/>
      <point x="175.0" y="-15.0"/>
      <point x="235" y="-15" type="curve" smooth="yes"/>
      <point x="310.0" y="-15.0"/>
      <point x="349.0" y="30.0"/>
      <point x="349" y="81" type="curve" smooth="yes"/>
      <point x="349.0" y="141.0"/>
      <point x="290.0" y="166.0"/>
      <point x="290" y="231" type="curve" smooth="yes"/>
      <point x="290.0" y="289.0"/>
      <point x="309.0" y="340.0"/>
      <point x="361" y="404" type="curve" smooth="yes"/>
      <point x="442" y="504" type="line" smooth="yes"/>
      <point x="482.04127045614325" y="553.4336672298065"/>
      <point x="486.0" y="573.0"/>
      <point x="486" y="596" type="curve" smooth="yes"/>
      <point x="486.0" y="627.0"/>
      <point x="460.06451612903226" y="649"/>
      <point x="419" y="649" type="curve" smooth="yes"/>
      <point x="91" y="649" type="line" smooth="yes"/>
      <point x="55" y="649"/>
      <point x="35" y="626"/>
      <point x="32" y="592" type="curve" smooth="yes"/>
      <point x="21" y="456" type="line" smooth="yes"/>
      <point x="19" y="428"/>
      <point x="35" y="413"/>
      <point x="55" y="413" type="curve" smooth="yes"/>
      <point x="78" y="413"/>
      <point x="94" y="429"/>
      <point x="103" y="450" type="curve" smooth="yes"/>
      <point x="120" y="490" type="line" smooth="yes"/>
      <point x="131" y="516"/>
      <point x="151" y="525"/>
      <point x="180" y="525" type="curve" smooth="yes"/>
      <point x="425" y="525" type="line"/>
      <point x="416" y="615" type="line"/>
      <point x="416" y="597"/>
      <point x="413" y="577"/>
    </contour>
  </outline>
</glyph>
<glyph name="less" format="2">
  <advance width="528"/>
  <unicode hex="003C"/>
  <outline>
    <contour>
      <point x="473" y="113" type="curve" smooth="yes"/>
      <point x="473.0" y="144.39175257731958"/>
      <point x="452.0264555885227" y="174.11232336383287"/>
      <point x="398" y="200" type="curve" smooth="yes"/>
      <point x="322.2818311588194" y="239.2967711707393"/>
      <point x="205.9772158880353" y="275.3272198187379"/>
      <point x="83" y="311" type="curve"/>
      <point x="83" y="295" type="line"/>
      <point x="206.0574058424986" y="329.756671879179"/>
      <point x="322.42401736212094" y="364.83727760894294"/>
      <point x="401" y="407" type="curve" smooth="yes"/>
      <point x="451.67351666718156" y="434.0258755558301"/>
      <point x="473.0" y="462.40425531914894"/>
      <point x="473" y="491" type="curve" smooth="yes"/>
      <point x="473.0" y="519.75"/>
      <point x="460.0" y="541.0"/>
      <point x="439" y="541" type="curve" smooth="yes"/>
      <point x="419.0" y="541.0"/>
      <point x="394" y="532"/>
      <point x="370" y="512" type="curve" smooth="yes"/>
      <point x="323.1425742493345" y="473.7490402035383"/>
      <point x="186.69885118348498" y="404.7656573990422"/>
      <point x="75" y="363" type="curve" smooth="yes"/>
      <point x="34.32996084598403" y="347.4496909116998"/>
      <point x="20.0" y="325.5"/>
      <point x="20" y="303" type="curve" smooth="yes"/>
      <point x="20.0" y="280.5"/>
      <point x="34.76440565290195" y="258.8503856518871"/>
      <point x="75" y="243" type="curve" smooth="yes"/>
      <point x="186.78060827554245" y="201.5640848633765"/>
      <point x="325.146971545615" y="133.12710992829332"/>
      <point x="370" y="94" type="curve" smooth="yes"/>
      <point x="395.0" y="72.0"/>
      <point x="420.0" y="65.0"/>
      <point x="436" y="65" type="curve" smooth="yes"/>
      <point x="459.0" y="65.0"/>
      <point x="473.0" y="85.21052631578948"/>
    </contour>
  </outline>
</glyph>
<glyph name="F" format="2">
  <advance width="594"/>
  <unicode hex="0046"/>
  <outline>
    <contour>
      <point x="410" y="700" type="curve" smooth="yes"/>
      <point x="66" y="700" type="line" smooth="yes"/>
      <point x="40" y="700"/>
      <point x="25" y="688"/>
      <point x="25" y="663" type="curve" smooth="yes"/>
      <point x="25" y="638"/>
      <point x="39" y="627"/>
      <point x="67" y="621" type="curve" smooth="yes"/>
      <point x="77" y="619" type="line" smooth="yes"/>
      <point x="99" y="615"/>
      <point x="115" y="595"/>
      <point x="115" y="565" type="curve" smooth="yes"/>
      <point x="115" y="137" type="line" smooth="yes"/>
      <point x="115" y="106"/>
      <point x="103" y="91"/>
      <point x="77" y="83" type="curve" smooth="yes"/>
      <point x="67" y="80" type="line" smooth="yes"/>
      <point x="38" y="71"/>
      <point x="25" y="59"/>
      <point x="25" y="36" type="curve" smooth="yes"/>
      <point x="25" y="12"/>
      <point x="41" y="0"/>
      <point x="66" y="0" type="curve" smooth="yes"/>
      <point x="352" y="0" type="line" smooth="yes"/>
      <point x="374" y="0"/>
      <point x="394" y="12"/>
      <point x="394" y="36" type="curve" smooth="yes"/>
      <point x="394" y="53"/>
      <point x="382" y="69"/>
      <point x="360" y="76" type="curve" smooth="yes"/>
      <point x="323" y="87" type="line" smooth="yes"/>
      <point x="295" y="95"/>
      <point x="279" y="112"/>
      <point x="279" y="148" type="curve" smooth="yes"/>
      <point x="279" y="629" type="line"/>
      <point x="343" y="629" type="line" smooth="yes"/>
      <point x="404.0" y="629.0"/>
      <point x="444.0" y="606.0"/>
      <point x="480" y="548" type="curve" smooth="yes"/>
      <point x="511" y="499"/>
      <point x="532.7647058823529" y="484.0"/>
      <point x="558" y="484" type="curve" smooth="yes"/>
      <point x="578.3076923076923" y="484.0"/>
      <point x="591.0" y="495.8301886792453"/>
      <point x="591" y="517" type="curve" smooth="yes"/>
      <point x="591.0" y="524.2"/>
      <point x="588.2249053298583" y="540.1995329340397"/>
      <point x="583" y="562" type="curve" smooth="yes"/>
      <point x="554" y="683" type="line" smooth="yes"/>
      <point x="548" y="709"/>
      <point x="540" y="721"/>
      <point x="518" y="721" type="curve" smooth="yes"/>
      <point x="499.1818181818182" y="721.0"/>
      <point x="490" y="716"/>
      <point x="472" y="708" type="curve" smooth="yes"/>
      <point x="452" y="699"/>
      <point x="431.0357142857143" y="700"/>
    </contour>
    <contour>
      <point x="243" y="368" type="line"/>
      <point x="237" y="302" type="line"/>
      <point x="387" y="302" type="line" smooth="yes"/>
      <point x="432" y="302"/>
      <point x="457" y="286"/>
      <point x="477" y="260" type="curve" smooth="yes"/>
      <point x="496" y="235"/>
      <point x="508.0" y="224.0"/>
      <point x="527" y="224.0" type="curve" smooth="yes"/>
      <point x="543.0" y="224.0"/>
      <point x="554.0" y="234"/>
      <point x="554" y="251" type="curve" smooth="yes"/>
      <point x="554.0" y="260.0"/>
      <point x="552" y="272"/>
      <point x="549" y="286" type="curve" smooth="yes"/>
      <point x="522" y="410" type="line" smooth="yes"/>
      <point x="517" y="434"/>
      <point x="507" y="446"/>
      <point x="487" y="446" type="curve" smooth="yes"/>
      <point x="470" y="446.0"/>
      <point x="461" y="433"/>
      <point x="451" y="412" type="curve" smooth="yes"/>
      <point x="435" y="378"/>
      <point x="414" y="368"/>
      <point x="385" y="368" type="curve" smooth="yes"/>
    </contour>
  </outline>
</glyph>
<glyph name="O" format="2">
  <advance width="793"/>
  <unicode hex="004F"/>
  <outline>
    <contour>
      <point x="397" y="713" type="curve" smooth="yes"/>
      <point x="170" y="713"/>
      <point x="30" y="550"/>
      <point x="30" y="354" type="curve" smooth="yes"/>
      <point x="30" y="135"/>
      <point x="172" y="-15"/>
      <point x="397" y="-15" type="curve" smooth="yes"/>
      <point x="617" y="-15"/>
      <point x="763" y="140"/>
      <point x="763" y="355" type="curve" smooth="yes"/>
      <point x="763" y="561"/>
      <point x="616" y="713"/>
    </contour>
    <contour>
      <point x="591" y="289" type="curve" smooth="yes"/>
      <point x="591.0" y="150.0"/>
      <point x="534.0" y="77.0"/>
      <point x="445" y="77" type="curve" smooth="yes"/>
      <point x="320.0" y="77.0"/>
      <point x="200.0" y="223.0"/>
      <point x="200" y="415" type="curve" smooth="yes"/>
      <point x="200.0" y="540.0"/>
      <point x="256.0" y="623.0"/>
      <point x="350" y="623" type="curve" smooth="yes"/>
      <point x="474.0" y="623.0"/>
      <point x="591.0" y="479.0"/>
    </contour>
  </outline>
</glyph>
<glyph name="R" format="2">
  <advance width="712"/>
  <unicode hex="0052"/>
  <anchor x="312.0" y="738" name="center"/>
  <outline>
    <contour>
      <point x="664" y="451" type="curve" smooth="yes"/>
      <point x="664.0" y="602.0"/>
      <point x="516.0" y="700"/>
      <point x="319" y="700" type="curve" smooth="yes"/>
      <point x="61" y="700" type="line" smooth="yes"/>
      <point x="38" y="700"/>
      <point x="25" y="686"/>
      <point x="25" y="663" type="curve" smooth="yes"/>
      <point x="25" y="643"/>
      <point x="35" y="630"/>
      <point x="58" y="624" type="curve" smooth="yes"/>
      <point x="83" y="618" type="line" smooth="yes"/>
      <point x="107" y="612"/>
      <point x="120" y="596"/>
      <point x="120" y="573" type="curve" smooth="yes"/>
      <point x="120" y="125" type="line" smooth="yes"/>
      <point x="120" y="103"/>
      <point x="107" y="87"/>
      <point x="83" y="81" type="curve" smooth="yes"/>
      <point x="58" y="75" type="line" smooth="yes"/>
      <point x="35" y="70"/>
      <point x="26" y="56"/>
      <point x="26" y="36" type="curve" smooth="yes"/>
      <point x="26" y="14"/>
      <point x="38" y="0"/>
      <point x="61" y="0" type="curve" smooth="yes"/>
      <point x="334" y="0" type="line" smooth="yes"/>
      <point x="356" y="0"/>
      <point x="368" y="14"/>
      <point x="368" y="36" type="curve" smooth="yes"/>
      <point x="368" y="55"/>
      <point x="358" y="67"/>
      <point x="338" y="73" type="curve" smooth="yes"/>
      <point x="311" y="81" type="line" smooth="yes"/>
      <point x="294" y="86"/>
      <point x="284" y="100"/>
      <point x="284" y="125" type="curve" smooth="yes"/>
      <point x="284" y="626" type="line"/>
      <point x="313" y="626" type="line" smooth="yes"/>
      <point x="417" y="626"/>
      <point x="489" y="558"/>
      <point x="489" y="458" type="curve" smooth="yes"/>
      <point x="489" y="374"/>
      <point x="429" y="315"/>
      <point x="345" y="315" type="curve" smooth="yes"/>
      <point x="290" y="315"/>
      <point x="259" y="324"/>
      <point x="221" y="345" type="curve"/>
      <point x="211" y="278" type="line"/>
      <point x="258" y="253"/>
      <point x="297" y="242"/>
      <point x="380" y="242" type="curve" smooth="yes"/>
      <point x="550.0" y="242.0"/>
      <point x="664.0" y="325.0"/>
    </contour>
    <contour>
      <point x="345" y="272" type="line"/>
      <point x="451" y="124" type="line" smooth="yes"/>
      <point x="459" y="113"/>
      <point x="464" y="104"/>
      <point x="464" y="93" type="curve" smooth="yes"/>
      <point x="464" y="85"/>
      <point x="461" y="78"/>
      <point x="449" y="73" type="curve" smooth="yes"/>
      <point x="433" y="66"/>
      <point x="425" y="54"/>
      <point x="425" y="33" type="curve" smooth="yes"/>
      <point x="425" y="14"/>
      <point x="440" y="0"/>
      <point x="465" y="0" type="curve" smooth="yes"/>
      <point x="677" y="0" type="line" smooth="yes"/>
      <point x="701" y="0"/>
      <point x="712" y="14"/>
      <point x="712" y="36" type="curve" smooth="yes"/>
      <point x="712" y="54"/>
      <point x="701" y="65"/>
      <point x="687" y="73" type="curve" smooth="yes"/>
      <point x="662" y="88"/>
      <point x="642" y="96"/>
      <point x="627" y="118" type="curve" smooth="yes"/>
      <point x="513" y="283" type="line"/>
    </contour>
  </outline>
</glyph>
<glyph name="backslash" format="2">
  <advance width="420"/>
  <unicode hex="005C"/>
  <outline>
    <contour>
      <point x="32" y="682" type="curve" smooth="yes"/>
      <point x="27" y="694"/>
      <point x="24" y="704"/>
      <point x="24" y="712" type="curve" smooth="yes"/>
      <point x="24.0" y="745.0"/>
      <point x="48.09090909090909" y="767.0"/>
      <point x="77" y="767" type="curve" smooth="yes"/>
      <point x="107.8108108108108" y="767.0"/>
      <point x="128" y="740"/>
      <point x="134" y="712" type="curve" smooth="yes"/>
      <point x="152" y="632"/>
      <point x="158" y="560"/>
      <point x="231" y="345" type="curve" smooth="yes"/>
      <point x="310" y="111"/>
      <point x="356" y="62"/>
      <point x="388" y="-18" type="curve" smooth="yes"/>
      <point x="395" y="-36"/>
      <point x="397.0" y="-47"/>
      <point x="397" y="-57" type="curve" smooth="yes"/>
      <point x="397.0" y="-80.65517241379311"/>
      <point x="375.3333333333333" y="-106.0"/>
      <point x="347" y="-106" type="curve" smooth="yes"/>
      <point x="318.30434782608694" y="-106.0"/>
      <point x="291" y="-87"/>
      <point x="281" y="-42" type="curve" smooth="yes"/>
      <point x="263" y="35"/>
      <point x="265" y="84"/>
      <point x="188" y="327" type="curve" smooth="yes"/>
      <point x="118" y="549"/>
      <point x="65" y="610"/>
    </contour>
  </outline>
</glyph>
<glyph name="b" format="2">
  <advance width="604"/>
  <unicode hex="0062"/>
  <outline>
    <contour>
      <point x="19" y="607" type="curve" smooth="yes"/>
      <point x="30" y="607" type="line" smooth="yes"/>
      <point x="47" y="607"/>
      <point x="60.0" y="591.0"/>
      <point x="60" y="562" type="curve" smooth="yes"/>
      <point x="60" y="19" type="line" smooth="yes"/>
      <point x="60" y="-1"/>
      <point x="72" y="-12"/>
      <point x="89" y="-12" type="curve" smooth="yes"/>
      <point x="109" y="-12"/>
      <point x="124" y="-9"/>
      <point x="151" y="2" type="curve" smooth="yes"/>
      <point x="210" y="26" type="line" smooth="yes"/>
      <point x="210" y="682" type="line" smooth="yes"/>
      <point x="210.0" y="706.0"/>
      <point x="197" y="725"/>
      <point x="177" y="725" type="curve" smooth="yes"/>
      <point x="154" y="725"/>
      <point x="140" y="716"/>
      <point x="112" y="705" type="curve" smooth="yes"/>
      <point x="23" y="670" type="line" smooth="yes"/>
      <point x="-3" y="660"/>
      <point x="-12" y="646"/>
      <point x="-12" y="631" type="curve" smooth="yes"/>
      <point x="-12" y="616"/>
      <point x="-1" y="607"/>
    </contour>
    <contour>
      <point x="158.0" y="335.0" type="line"/>
      <point x="194.0" y="370.0"/>
      <point x="241.0" y="386.0"/>
      <point x="292.0" y="386.0" type="curve" smooth="yes"/>
      <point x="380.0" y="386.0"/>
      <point x="428.0" y="310.0"/>
      <point x="428.0" y="222.0" type="curve" smooth="yes"/>
      <point x="428.0" y="137.0"/>
      <point x="376.0" y="69.0"/>
      <point x="291.0" y="69.0" type="curve" smooth="yes"/>
      <point x="240.0" y="69.0"/>
      <point x="193.0" y="86.0"/>
      <point x="166.0" y="129.0" type="curve"/>
      <point x="130.0" y="79.0" type="line"/>
      <point x="175.0" y="16.0"/>
      <point x="245.0" y="-14.0"/>
      <point x="322.0" y="-14.0" type="curve" smooth="yes"/>
      <point x="479.0" y="-14.0"/>
      <point x="584.0" y="100.0"/>
      <point x="584.0" y="257.0" type="curve" smooth="yes"/>
      <point x="584.0" y="389.0"/>
      <point x="496.0" y="490.0"/>
      <point x="364.0" y="490.0" type="curve" smooth="yes"/>
      <point x="274.0" y="490.0"/>
      <point x="200.0" y="442.0"/>
      <point x="138.0" y="377.0" type="curve"/>
    </contour>
  </outline>
</glyph>
<glyph name="f" format="2">
  <advance width="386"/>
  <unicode hex="0066"/>
  <outline>
    <contour>
      <point x="253" y="131" type="curve" smooth="yes"/>
      <point x="253" y="397" type="line"/>
      <point x="311" y="397" type="line" smooth="yes"/>
      <point x="352.0" y="397.0"/>
      <point x="378.0" y="416.0"/>
      <point x="378" y="446" type="curve" smooth="yes"/>
      <point x="378" y="466"/>
      <point x="364.0" y="475.0"/>
      <point x="343" y="475" type="curve" smooth="yes"/>
      <point x="236" y="475" type="line"/>
      <point x="254.0" y="456" type="line" smooth="yes"/>
      <point x="254.0" y="486.85714285714283"/>
      <point x="242.76791723204454" y="499.16723630648414"/>
      <point x="225" y="516" type="curve" smooth="yes"/>
      <point x="188.7836141918213" y="549.1983536574971"/>
      <point x="175.0" y="576.9166666666666"/>
      <point x="175" y="602" type="curve" smooth="yes"/>
      <point x="175.0" y="632.952380952381"/>
      <point x="192.9268292682927" y="654.0"/>
      <point x="224" y="654" type="curve" smooth="yes"/>
      <point x="243.2" y="654.0"/>
      <point x="256" y="642.0"/>
      <point x="256" y="620" type="curve" smooth="yes"/>
      <point x="256" y="602" type="line" smooth="yes"/>
      <point x="256" y="564.8904109589041"/>
      <point x="287" y="539"/>
      <point x="328" y="539" type="curve" smooth="yes"/>
      <point x="365.0" y="539.0"/>
      <point x="396.0" y="560.1842105263158"/>
      <point x="396" y="609" type="curve" smooth="yes"/>
      <point x="396.0" y="671.54"/>
      <point x="349.0" y="715.0"/>
      <point x="253" y="715" type="curve" smooth="yes"/>
      <point x="145.0" y="715.0"/>
      <point x="67.0" y="654.0"/>
      <point x="67" y="572" type="curve" smooth="yes"/>
      <point x="67" y="516"/>
      <point x="107" y="490"/>
      <point x="107" y="452" type="curve" smooth="yes"/>
      <point x="107" y="438" type="line"/>
      <point x="142" y="475" type="line"/>
      <point x="50" y="475" type="line" smooth="yes"/>
      <point x="30" y="475"/>
      <point x="17" y="464"/>
      <point x="17" y="446" type="curve" smooth="yes"/>
      <point x="17" y="429"/>
      <point x="32" y="416"/>
      <point x="53" y="409" type="curve" smooth="yes"/>
      <point x="68" y="404" type="line" smooth="yes"/>
      <point x="94" y="395"/>
      <point x="105" y="378"/>
      <point x="105" y="347" type="curve" smooth="yes"/>
      <point x="105" y="113" type="line" smooth="yes"/>
      <point x="105" y="87"/>
      <point x="92" y="74"/>
      <point x="76" y="70" type="curve" smooth="yes"/>
      <point x="57" y="65" type="line" smooth="yes"/>
      <point x="40" y="60"/>
      <point x="32" y="49"/>
      <point x="32" y="31" type="curve" smooth="yes"/>
      <point x="32" y="10"/>
      <point x="42" y="0"/>
      <point x="58" y="0" type="curve" smooth="yes"/>
      <point x="317" y="0" type="line" smooth="yes"/>
      <point x="343" y="0"/>
      <point x="353" y="10"/>
      <point x="353" y="31" type="curve" smooth="yes"/>
      <point x="353" y="52"/>
      <point x="336" y="61"/>
      <point x="312" y="68" type="curve" smooth="yes"/>
      <point x="290" y="74" type="line" smooth="yes"/>
      <point x="266" y="81"/>
      <point x="253" y="102"/>
    </contour>
  </outline>
</glyph>
<glyph name="m" format="2">
  <advance width="936"/>
  <unicode hex="006D"/>
  <outline>
    <contour>
      <point x="59" y="68" type="curve" smooth="yes"/>
      <point x="52" y="65" type="line" smooth="yes"/>
      <point x="33" y="58"/>
      <point x="25" y="49"/>
      <point x="25" y="33" type="curve" smooth="yes"/>
      <point x="25" y="12"/>
      <point x="39" y="0"/>
      <point x="62" y="0" type="curve" smooth="yes"/>
      <point x="267" y="0" type="line" smooth="yes"/>
      <point x="294" y="0"/>
      <point x="308" y="10"/>
      <point x="308" y="32" type="curve" smooth="yes"/>
      <point x="308" y="51"/>
      <point x="298" y="58"/>
      <point x="279" y="65" type="curve" smooth="yes"/>
      <point x="263" y="71" type="line" smooth="yes"/>
      <point x="249" y="76"/>
      <point x="242" y="90"/>
      <point x="242" y="118" type="curve" smooth="yes"/>
      <point x="242" y="456" type="line" smooth="yes"/>
      <point x="242" y="476"/>
      <point x="231" y="490"/>
      <point x="213" y="490" type="curve" smooth="yes"/>
      <point x="195" y="490"/>
      <point x="180" y="483"/>
      <point x="154" y="473" type="curve" smooth="yes"/>
      <point x="50" y="434" type="line" smooth="yes"/>
      <point x="27" y="424"/>
      <point x="19" y="410"/>
      <point x="19" y="397" type="curve" smooth="yes"/>
      <point x="19" y="376"/>
      <point x="31" y="367"/>
      <point x="52" y="367" type="curve" smooth="yes"/>
      <point x="61" y="367" type="line" smooth="yes"/>
      <point x="75" y="367"/>
      <point x="91" y="356"/>
      <point x="91" y="330" type="curve" smooth="yes"/>
      <point x="91" y="112" type="line" smooth="yes"/>
      <point x="91" y="91"/>
      <point x="79" y="76"/>
    </contour>
    <contour>
      <point x="552" y="353" type="line" smooth="yes"/>
      <point x="552" y="444"/>
      <point x="485" y="490"/>
      <point x="416" y="490" type="curve" smooth="yes"/>
      <point x="338" y="490"/>
      <point x="274" y="457"/>
      <point x="218" y="400" type="curve"/>
      <point x="186" y="367" type="line"/>
      <point x="222" y="323" type="line"/>
      <point x="246" y="348" type="line" smooth="yes"/>
      <point x="273" y="376"/>
      <point x="301" y="383"/>
      <point x="331" y="383" type="curve" smooth="yes"/>
      <point x="369" y="383"/>
      <point x="404" y="361"/>
      <point x="404" y="305" type="curve" smooth="yes"/>
      <point x="404" y="123" type="line" smooth="yes"/>
      <point x="404" y="86"/>
      <point x="397" y="73"/>
      <point x="377" y="69" type="curve" smooth="yes"/>
      <point x="367" y="67" type="line" smooth="yes"/>
      <point x="349" y="63"/>
      <point x="336" y="52"/>
      <point x="336" y="34" type="curve" smooth="yes"/>
      <point x="336" y="11"/>
      <point x="349" y="0"/>
      <point x="366" y="0" type="curve" smooth="yes"/>
      <point x="580" y="0" type="line" smooth="yes"/>
      <point x="598" y="0"/>
      <point x="611" y="12"/>
      <point x="611" y="32" type="curve" smooth="yes"/>
      <point x="611" y="51"/>
      <point x="600" y="61"/>
      <point x="586" y="65" type="curve" smooth="yes"/>
      <point x="578" y="67" type="line" smooth="yes"/>
      <point x="564" y="70"/>
      <point x="552" y="85"/>
      <point x="552" y="112" type="curve" smooth="yes"/>
    </contour>
    <contour>
      <point x="517" y="323" type="line" smooth="yes"/>
      <point x="541" y="348" type="line" smooth="yes"/>
      <point x="568" y="376"/>
      <point x="596" y="383"/>
      <point x="626" y="383" type="curve" smooth="yes"/>
      <point x="663" y="383"/>
      <point x="692" y="361"/>
      <point x="698" y="305" type="curve" smooth="yes"/>
      <point x="716" y="123" type="line" smooth="yes"/>
      <point x="720" y="86"/>
      <point x="709" y="73"/>
      <point x="687" y="69" type="curve" smooth="yes"/>
      <point x="677" y="67" type="line" smooth="yes"/>
      <point x="659" y="63"/>
      <point x="646" y="52"/>
      <point x="646" y="34" type="curve" smooth="yes"/>
      <point x="646" y="11"/>
      <point x="659" y="0"/>
      <point x="676" y="0" type="curve" smooth="yes"/>
      <point x="898" y="0" type="line" smooth="yes"/>
      <point x="916" y="0"/>
      <point x="929" y="12"/>
      <point x="929" y="32" type="curve" smooth="yes"/>
      <point x="929" y="51"/>
      <point x="918" y="61"/>
      <point x="904" y="65" type="curve" smooth="yes"/>
      <point x="896" y="67" type="line" smooth="yes"/>
      <point x="883" y="71"/>
      <point x="875" y="85"/>
      <point x="872" y="112" type="curve" smooth="yes"/>
      <point x="846" y="353" type="line" smooth="yes"/>
      <point x="836" y="444"/>
      <point x="779" y="490"/>
      <point x="711" y="490" type="curve" smooth="yes"/>
      <point x="633" y="490"/>
      <point x="569" y="457"/>
      <point x="513" y="400" type="curve" smooth="yes"/>
      <point x="481" y="367" type="line"/>
    </contour>
  </outline>
</glyph>
<glyph name="n" format="2">
  <advance width="641"/>
  <unicode hex="006E"/>
  <outline>
    <contour>
      <point x="242" y="456" type="line" smooth="yes"/>
      <point x="242" y="476"/>
      <point x="231" y="490"/>
      <point x="213" y="490" type="curve" smooth="yes"/>
      <point x="195" y="490"/>
      <point x="180" y="483"/>
      <point x="154" y="473" type="curve" smooth="yes"/>
      <point x="50" y="434" type="line" smooth="yes"/>
      <point x="27.0" y="424.0"/>
      <point x="19.0" y="410.0"/>
      <point x="19" y="397" type="curve" smooth="yes"/>
      <point x="19.0" y="376.0"/>
      <point x="31.0" y="367"/>
      <point x="52" y="367" type="curve" smooth="yes"/>
      <point x="61" y="367.0" type="line" smooth="yes"/>
      <point x="75.0" y="367.0"/>
      <point x="91.0" y="356.0"/>
      <point x="91.0" y="330" type="curve" smooth="yes"/>
      <point x="91.0" y="112.0" type="line" smooth="yes"/>
      <point x="91.0" y="91"/>
      <point x="79" y="76"/>
      <point x="59" y="68" type="curve" smooth="yes"/>
      <point x="52" y="65" type="line" smooth="yes"/>
      <point x="33" y="58"/>
      <point x="25.0" y="49"/>
      <point x="25" y="33" type="curve" smooth="yes"/>
      <point x="25" y="12"/>
      <point x="39" y="0"/>
      <point x="62" y="0" type="curve" smooth="yes"/>
      <point x="267" y="0" type="line" smooth="yes"/>
      <point x="294" y="0"/>
      <point x="308" y="10"/>
      <point x="308" y="32" type="curve" smooth="yes"/>
      <point x="308.0" y="51"/>
      <point x="298" y="58"/>
      <point x="279" y="65" type="curve" smooth="yes"/>
      <point x="263" y="71" type="line" smooth="yes"/>
      <point x="249" y="76"/>
      <point x="242.0" y="90.0"/>
      <point x="242.0" y="118.0" type="curve" smooth="yes"/>
    </contour>
    <contour>
      <point x="222" y="323" type="line" smooth="yes"/>
      <point x="246" y="348" type="line" smooth="yes"/>
      <point x="273" y="376"/>
      <point x="301" y="383"/>
      <point x="331" y="383" type="curve" smooth="yes"/>
      <point x="368" y="383"/>
      <point x="397" y="361"/>
      <point x="403" y="305" type="curve" smooth="yes"/>
      <point x="421" y="123" type="line" smooth="yes"/>
      <point x="425" y="86"/>
      <point x="414" y="73"/>
      <point x="392" y="69" type="curve" smooth="yes"/>
      <point x="382" y="67" type="line" smooth="yes"/>
      <point x="364" y="63"/>
      <point x="351.0" y="52.0"/>
      <point x="351.0" y="34" type="curve" smooth="yes"/>
      <point x="351" y="11"/>
      <point x="364" y="0"/>
      <point x="381" y="0" type="curve" smooth="yes"/>
      <point x="603" y="0" type="line" smooth="yes"/>
      <point x="621" y="0"/>
      <point x="634.0" y="12.0"/>
      <point x="634.0" y="32" type="curve" smooth="yes"/>
      <point x="634.0" y="51"/>
      <point x="623" y="61"/>
      <point x="609" y="65" type="curve" smooth="yes"/>
      <point x="601" y="67" type="line" smooth="yes"/>
      <point x="588" y="71"/>
      <point x="580" y="85"/>
      <point x="577" y="112" type="curve" smooth="yes"/>
      <point x="551" y="353" type="line" smooth="yes"/>
      <point x="541" y="444"/>
      <point x="484" y="490"/>
      <point x="416" y="490" type="curve" smooth="yes"/>
      <point x="338.0" y="490.0"/>
      <point x="274" y="457"/>
      <point x="218" y="400" type="curve" smooth="yes"/>
      <point x="186" y="367" type="line"/>
    </contour>
  </outline>
</glyph>
<glyph name="o" format="2">
  <advance width="581"/>
  <unicode hex="006F"/>
  <outline>
    <contour>
      <point x="297" y="489" type="curve" smooth="yes"/>
      <point x="137.0" y="489.0"/>
      <point x="20.0" y="373.0"/>
      <point x="20" y="242" type="curve" smooth="yes"/>
      <point x="20.0" y="89.0"/>
      <point x="127.0" y="-15.0"/>
      <point x="283" y="-15" type="curve" smooth="yes"/>
      <point x="439.0" y="-15.0"/>
      <point x="561.0" y="92.0"/>
      <point x="561" y="242" type="curve" smooth="yes"/>
      <point x="561.0" y="387.0"/>
      <point x="454.0" y="489.0"/>
    </contour>
    <contour>
      <point x="401.0" y="185" type="curve" smooth="yes"/>
      <point x="401.0" y="105.04761904761905"/>
      <point x="370.0" y="70.0"/>
      <point x="314" y="70" type="curve" smooth="yes"/>
      <point x="245.0" y="70.0"/>
      <point x="182.0" y="161.0"/>
      <point x="182" y="289" type="curve" smooth="yes"/>
      <point x="182.0" y="368.0"/>
      <point x="215.0" y="406.0"/>
      <point x="269" y="406.0" type="curve" smooth="yes"/>
      <point x="338.0" y="406.0"/>
      <point x="401.0" y="304.5887445887446"/>
    </contour>
  </outline>
</glyph>
<glyph name="p" format="2">
  <advance width="621"/>
  <unicode hex="0070"/>
  <outline>
    <contour>
      <point x="237" y="442" type="line" smooth="yes"/>
      <point x="237.0" y="473.0"/>
      <point x="224" y="490"/>
      <point x="204" y="490" type="curve" smooth="yes"/>
      <point x="185" y="490"/>
      <point x="166" y="480"/>
      <point x="140" y="470" type="curve" smooth="yes"/>
      <point x="40" y="432" type="line" smooth="yes"/>
      <point x="23" y="425"/>
      <point x="13" y="411"/>
      <point x="13" y="398" type="curve" smooth="yes"/>
      <point x="13" y="380"/>
      <point x="24" y="367"/>
      <point x="45" y="367" type="curve" smooth="yes"/>
      <point x="53" y="367" type="line" smooth="yes"/>
      <point x="75" y="367"/>
      <point x="89.0" y="354.0"/>
      <point x="89" y="322" type="curve" smooth="yes"/>
      <point x="89" y="-129" type="line" smooth="yes"/>
      <point x="89" y="-149"/>
      <point x="80" y="-169"/>
      <point x="63" y="-175" type="curve" smooth="yes"/>
      <point x="51" y="-179" type="line" smooth="yes"/>
      <point x="31" y="-186"/>
      <point x="16" y="-191"/>
      <point x="15" y="-211" type="curve" smooth="yes"/>
      <point x="14" y="-232"/>
      <point x="26" y="-245"/>
      <point x="56" y="-245" type="curve" smooth="yes"/>
      <point x="290" y="-245" type="line" smooth="yes"/>
      <point x="314" y="-245"/>
      <point x="325" y="-231"/>
      <point x="325" y="-212" type="curve" smooth="yes"/>
      <point x="325" y="-194"/>
      <point x="312" y="-189"/>
      <point x="291" y="-182" type="curve" smooth="yes"/>
      <point x="279" y="-178" type="line" smooth="yes"/>
      <point x="253" y="-169"/>
      <point x="237" y="-158"/>
      <point x="237" y="-127" type="curve" smooth="yes"/>
    </contour>
    <contour>
      <point x="175.0" y="335.0" type="line"/>
      <point x="211.0" y="370.0"/>
      <point x="258.0" y="386.0"/>
      <point x="309.0" y="386.0" type="curve" smooth="yes"/>
      <point x="397.0" y="386.0"/>
      <point x="445.0" y="310.0"/>
      <point x="445.0" y="222.0" type="curve" smooth="yes"/>
      <point x="445.0" y="137.0"/>
      <point x="393.0" y="69.0"/>
      <point x="308.0" y="69.0" type="curve" smooth="yes"/>
      <point x="257.0" y="69.0"/>
      <point x="210.0" y="86.0"/>
      <point x="183.0" y="129.0" type="curve"/>
      <point x="147.0" y="79.0" type="line"/>
      <point x="192.0" y="16.0"/>
      <point x="262.0" y="-14.0"/>
      <point x="339.0" y="-14.0" type="curve" smooth="yes"/>
      <point x="496.0" y="-14.0"/>
      <point x="601.0" y="100.0"/>
      <point x="601.0" y="257.0" type="curve" smooth="yes"/>
      <point x="601.0" y="389.0"/>
      <point x="513.0" y="490.0"/>
      <point x="381.0" y="490.0" type="curve" smooth="yes"/>
      <point x="291.0" y="490.0"/>
      <point x="217.0" y="442.0"/>
      <point x="155.0" y="377.0" type="curve"/>
    </contour>
  </outline>
</glyph>
<glyph name="r" format="2">
  <advance width="465"/>
  <unicode hex="0072"/>
  <outline>
    <contour>
      <point x="224" y="263" type="line"/>
      <point x="227.28830018985266" y="398.916407847243"/>
      <point x="285.6" y="491.0"/>
      <point x="367" y="491" type="curve" smooth="yes"/>
      <point x="424.90566037735846" y="491.0"/>
      <point x="460.0" y="446.6"/>
      <point x="460" y="380" type="curve" smooth="yes"/>
      <point x="460" y="322"/>
      <point x="427" y="292"/>
      <point x="380" y="292" type="curve" smooth="yes"/>
      <point x="348" y="292"/>
      <point x="327" y="308"/>
      <point x="314" y="332" type="curve" smooth="yes"/>
      <point x="302.6710480157596" y="354.6579039684808"/>
      <point x="297.7142857142857" y="360.0"/>
      <point x="284" y="360" type="curve" smooth="yes"/>
      <point x="261.14285714285717" y="360.0"/>
      <point x="244.0" y="329.21839080459773"/>
      <point x="244" y="257" type="curve"/>
    </contour>
    <contour>
      <point x="244" y="457" type="curve" smooth="yes"/>
      <point x="244" y="138" type="line" smooth="yes"/>
      <point x="244" y="115"/>
      <point x="256" y="92"/>
      <point x="283" y="83" type="curve" smooth="yes"/>
      <point x="323" y="70" type="line" smooth="yes"/>
      <point x="349" y="62"/>
      <point x="361" y="52"/>
      <point x="361" y="33" type="curve" smooth="yes"/>
      <point x="361" y="11"/>
      <point x="347" y="0"/>
      <point x="327" y="0" type="curve" smooth="yes"/>
      <point x="57" y="0" type="line" smooth="yes"/>
      <point x="35" y="0"/>
      <point x="22" y="12"/>
      <point x="22" y="33" type="curve" smooth="yes"/>
      <point x="22" y="47"/>
      <point x="30" y="54"/>
      <point x="47" y="61" type="curve" smooth="yes"/>
      <point x="66" y="69" type="line" smooth="yes"/>
      <point x="83" y="76"/>
      <point x="96" y="94"/>
      <point x="96" y="118" type="curve" smooth="yes"/>
      <point x="96" y="333" type="line" smooth="yes"/>
      <point x="96" y="358"/>
      <point x="80" y="369"/>
      <point x="66" y="369" type="curve" smooth="yes"/>
      <point x="57" y="369" type="line" smooth="yes"/>
      <point x="37" y="369"/>
      <point x="25" y="378"/>
      <point x="25" y="398" type="curve" smooth="yes"/>
      <point x="25" y="411"/>
      <point x="33" y="427"/>
      <point x="55" y="435" type="curve" smooth="yes"/>
      <point x="157" y="474" type="line" smooth="yes"/>
      <point x="183" y="484"/>
      <point x="198" y="490"/>
      <point x="215" y="490" type="curve" smooth="yes"/>
      <point x="233" y="490"/>
      <point x="244" y="477"/>
    </contour>
  </outline>
</glyph>
<glyph name="bar" format="2">
  <advance width="357"/>
  <unicode hex="007C"/>
  <outline>
    <contour>
      <point x="111" y="681" type="curve" smooth="yes"/>
      <point x="121.7440734142944" y="566.7221282297777"/>
      <point x="151.0" y="341.169014084507"/>
      <point x="151" y="265" type="curve" smooth="yes"/>
      <point x="151.0" y="174.15277777777777"/>
      <point x="121.7475898089968" y="-41.70767295803422"/>
      <point x="111" y="-157" type="curve" smooth="yes"/>
      <point x="110.0" y="-165.0"/>
      <point x="110.0" y="-172.0"/>
      <point x="110" y="-180" type="curve" smooth="yes"/>
      <point x="110.0" y="-223.16666666666669"/>
      <point x="137.5675675675676" y="-250.0"/>
      <point x="178" y="-250" type="curve" smooth="yes"/>
      <point x="218.85714285714283" y="-250.0"/>
      <point x="243.0" y="-222.96491228070175"/>
      <point x="243" y="-183" type="curve" smooth="yes"/>
      <point x="243.0" y="-174.0"/>
      <point x="243.0" y="-165.0"/>
      <point x="242" y="-154" type="curve" smooth="yes"/>
      <point x="235.16334272791235" y="-39.730157023677805"/>
      <point x="204.0" y="168.27166276346605"/>
      <point x="204" y="263" type="curve" smooth="yes"/>
      <point x="204.0" y="334.2903981264637"/>
      <point x="231.16332204569727" y="567.6831478935978"/>
      <point x="238" y="680" type="curve" smooth="yes"/>
      <point x="239" y="694"/>
      <point x="239" y="695"/>
      <point x="239" y="697" type="curve" smooth="yes"/>
      <point x="239.0" y="734.5172413793103"/>
      <point x="214.52941176470586" y="765.0"/>
      <point x="175" y="765" type="curve" smooth="yes"/>
      <point x="137.3529411764706" y="765.0"/>
      <point x="111.0" y="739.3333333333334"/>
      <point x="111" y="695" type="curve" smooth="yes"/>
      <point x="111" y="691"/>
      <point x="111.0" y="686.0"/>
    </contour>
  </outline>
</glyph>
<glyph name="currency" format="2">
  <advance width="534"/>
  <unicode hex="00A4"/>
  <outline>
    <contour>
      <point x="266" y="136" type="curve" smooth="yes"/>
      <point x="162" y="136"/>
      <point x="78" y="224"/>
      <point x="78" y="326" type="curve" smooth="yes"/>
      <point x="78" y="429"/>
      <point x="162" y="514"/>
      <point x="266" y="514" type="curve" smooth="yes"/>
      <point x="372" y="514"/>
      <point x="455" y="429"/>
      <point x="455" y="326" type="curve" smooth="yes"/>
      <point x="455" y="224"/>
      <point x="372" y="136"/>
    </contour>
    <contour>
      <point x="267" y="226" type="curve" smooth="yes"/>
      <point x="320" y="226"/>
      <point x="366" y="270"/>
      <point x="366" y="326.0" type="curve" smooth="yes"/>
      <point x="366" y="382"/>
      <point x="320" y="425.0"/>
      <point x="267" y="425.0" type="curve" smooth="yes"/>
      <point x="211" y="425.0"/>
      <point x="169.0" y="382"/>
      <point x="169.0" y="326.0" type="curve" smooth="yes"/>
      <point x="169.0" y="270"/>
      <point x="211" y="226"/>
    </contour>
    <contour>
      <point x="59" y="536" type="curve" smooth="yes"/>
      <point x="73" y="550"/>
      <point x="97" y="547"/>
      <point x="114" y="530" type="curve" smooth="yes"/>
      <point x="192" y="452" type="line"/>
      <point x="142" y="402" type="line"/>
      <point x="64" y="478" type="line" smooth="yes"/>
      <point x="47" y="494"/>
      <point x="42" y="520"/>
    </contour>
    <contour>
      <point x="387" y="396" type="line"/>
      <point x="335" y="447" type="line"/>
      <point x="421" y="532" type="line" smooth="yes"/>
      <point x="438" y="549"/>
      <point x="460" y="551"/>
      <point x="476" y="535" type="curve" smooth="yes"/>
      <point x="491" y="520"/>
      <point x="489" y="499"/>
      <point x="471" y="481" type="curve" smooth="yes"/>
    </contour>
    <contour>
      <point x="395" y="248" type="line"/>
      <point x="467" y="177" type="line" smooth="yes"/>
      <point x="486" y="158"/>
      <point x="490" y="132"/>
      <point x="476" y="119" type="curve" smooth="yes"/>
      <point x="458" y="103"/>
      <point x="436" y="106"/>
      <point x="419" y="123" type="curve" smooth="yes"/>
      <point x="350" y="194" type="line"/>
    </contour>
    <contour>
      <point x="59" y="118" type="curve" smooth="yes"/>
      <point x="45" y="134"/>
      <point x="46" y="157"/>
      <point x="63" y="174" type="curve" smooth="yes"/>
      <point x="143" y="254" type="line"/>
      <point x="186" y="196" type="line"/>
      <point x="113" y="123" type="line" smooth="yes"/>
      <point x="97" y="107"/>
      <point x="71" y="104"/>
    </contour>
  </outline>
</glyph>
<glyph name="copyright" format="2">
  <advance width="785"/>
  <unicode hex="00A9"/>
  <outline>
    <contour>
      <point x="392" y="-15" type="curve" smooth="yes"/>
      <point x="194" y="-15"/>
      <point x="53" y="132"/>
      <point x="53" y="330" type="curve" smooth="yes"/>
      <point x="53" y="527"/>
      <point x="195" y="670"/>
      <point x="392" y="670" type="curve" smooth="yes"/>
      <point x="590" y="670"/>
      <point x="732" y="528"/>
      <point x="732" y="330" type="curve" smooth="yes"/>
      <point x="732" y="131"/>
      <point x="591" y="-15"/>
    </contour>
    <contour>
      <point x="392" y="35" type="curve" smooth="yes"/>
      <point x="561" y="35"/>
      <point x="682" y="161"/>
      <point x="682" y="330" type="curve" smooth="yes"/>
      <point x="682" y="498"/>
      <point x="560" y="620"/>
      <point x="392" y="620" type="curve" smooth="yes"/>
      <point x="223" y="620"/>
      <point x="103" y="499"/>
      <point x="103" y="330" type="curve" smooth="yes"/>
      <point x="103" y="160"/>
      <point x="222" y="35"/>
    </contour>
    <contour>
      <point x="569" y="239" type="curve" smooth="yes"/>
      <point x="569" y="249"/>
      <point x="564" y="257"/>
      <point x="557" y="257" type="curve" smooth="yes"/>
      <point x="550" y="257"/>
      <point x="545" y="255"/>
      <point x="535" y="241" type="curve" smooth="yes"/>
      <point x="514" y="213"/>
      <point x="471" y="194"/>
      <point x="431" y="194" type="curve" smooth="yes"/>
      <point x="351.0" y="194.0"/>
      <point x="296.0" y="256.515923566879"/>
      <point x="296" y="345" type="curve" smooth="yes"/>
      <point x="296.0" y="435.0"/>
      <point x="339.88990825688074" y="488.0"/>
      <point x="400" y="488" type="curve" smooth="yes"/>
      <point x="439.0" y="488.0"/>
      <point x="475.0071077748568" y="472.018011305927"/>
      <point x="508" y="423" type="curve" smooth="yes"/>
      <point x="521" y="404"/>
      <point x="532" y="399"/>
      <point x="543" y="399" type="curve" smooth="yes"/>
      <point x="556" y="399"/>
      <point x="565" y="407"/>
      <point x="565" y="418" type="curve" smooth="yes"/>
      <point x="565" y="425"/>
      <point x="564" y="430.0"/>
      <point x="559" y="447" type="curve" smooth="yes"/>
      <point x="540" y="509" type="line" smooth="yes"/>
      <point x="532" y="536"/>
      <point x="525" y="545"/>
      <point x="512" y="545" type="curve" smooth="yes"/>
      <point x="496" y="545"/>
      <point x="494" y="530"/>
      <point x="476" y="530" type="curve" smooth="yes"/>
      <point x="464" y="530"/>
      <point x="444" y="543"/>
      <point x="408" y="543" type="curve" smooth="yes"/>
      <point x="286" y="543"/>
      <point x="198" y="452"/>
      <point x="198" y="322" type="curve" smooth="yes"/>
      <point x="198.0" y="199.0"/>
      <point x="276.7282051282051" y="113.0"/>
      <point x="400.0" y="113" type="curve" smooth="yes"/>
      <point x="496.02272727272725" y="113.0"/>
      <point x="569.0" y="179.15"/>
    </contour>
  </outline>
</glyph>
<glyph name="registered" format="2">
  <advance width="555"/>
  <unicode hex="00AE"/>
  <outline>
    <contour>
      <point x="277" y="181" type="curve" smooth="yes"/>
      <point x="136" y="181"/>
      <point x="37" y="286"/>
      <point x="37" y="427" type="curve" smooth="yes"/>
      <point x="37" y="566"/>
      <point x="138" y="665"/>
      <point x="277" y="665" type="curve" smooth="yes"/>
      <point x="416" y="665"/>
      <point x="518" y="566"/>
      <point x="518" y="427" type="curve" smooth="yes"/>
      <point x="518" y="286"/>
      <point x="418" y="181"/>
    </contour>
    <contour>
      <point x="277" y="221" type="curve" smooth="yes"/>
      <point x="395" y="221"/>
      <point x="478" y="309"/>
      <point x="478" y="427" type="curve" smooth="yes"/>
      <point x="478" y="542"/>
      <point x="392" y="625"/>
      <point x="277" y="625" type="curve" smooth="yes"/>
      <point x="161" y="625"/>
      <point x="77" y="543"/>
      <point x="77" y="427" type="curve" smooth="yes"/>
      <point x="77" y="309"/>
      <point x="159" y="221"/>
    </contour>
    <contour>
      <point x="404" y="468" type="curve" smooth="yes"/>
      <point x="404.0" y="527.0"/>
      <point x="344" y="565"/>
      <point x="264" y="565" type="curve" smooth="yes"/>
      <point x="161" y="565" type="line" smooth="yes"/>
      <point x="152.0" y="565.0"/>
      <point x="147" y="559"/>
      <point x="147" y="550" type="curve" smooth="yes"/>
      <point x="147" y="542"/>
      <point x="151" y="537"/>
      <point x="160" y="535" type="curve" smooth="yes"/>
      <point x="169" y="533" type="line" smooth="yes"/>
      <point x="179" y="531"/>
      <point x="184" y="524"/>
      <point x="184" y="515" type="curve" smooth="yes"/>
      <point x="184" y="341" type="line" smooth="yes"/>
      <point x="184" y="332"/>
      <point x="179" y="327"/>
      <point x="169" y="324" type="curve" smooth="yes"/>
      <point x="160" y="321" type="line" smooth="yes"/>
      <point x="151" y="318"/>
      <point x="147" y="314"/>
      <point x="147" y="306" type="curve" smooth="yes"/>
      <point x="147" y="297"/>
      <point x="152.0" y="292.0"/>
      <point x="161" y="292" type="curve" smooth="yes"/>
      <point x="273" y="292" type="line" smooth="yes"/>
      <point x="282.0" y="292.0"/>
      <point x="286" y="297"/>
      <point x="286" y="306" type="curve" smooth="yes"/>
      <point x="286" y="313"/>
      <point x="282" y="318"/>
      <point x="275" y="320" type="curve" smooth="yes"/>
      <point x="264" y="324" type="line" smooth="yes"/>
      <point x="258" y="326"/>
      <point x="254" y="331"/>
      <point x="254" y="341" type="curve" smooth="yes"/>
      <point x="254" y="531" type="line"/>
      <point x="262" y="531" type="line" smooth="yes"/>
      <point x="300" y="531"/>
      <point x="326.0" y="506.0"/>
      <point x="326" y="470" type="curve" smooth="yes"/>
      <point x="326.0" y="440.0"/>
      <point x="304.64285714285717" y="418.0"/>
      <point x="274" y="418" type="curve" smooth="yes"/>
      <point x="253" y="418"/>
      <point x="241" y="421"/>
      <point x="226" y="429" type="curve"/>
      <point x="222" y="397" type="line"/>
      <point x="241" y="388"/>
      <point x="256" y="383"/>
      <point x="288" y="383" type="curve" smooth="yes"/>
      <point x="356.97297297297297" y="383.0"/>
      <point x="404.0" y="417.0"/>
    </contour>
    <contour>
      <point x="271" y="398" type="line"/>
      <point x="313" y="340" type="line" smooth="yes"/>
      <point x="316" y="336"/>
      <point x="318" y="333"/>
      <point x="318" y="328" type="curve" smooth="yes"/>
      <point x="318" y="325"/>
      <point x="317" y="322"/>
      <point x="312" y="320" type="curve" smooth="yes"/>
      <point x="306" y="318"/>
      <point x="303" y="313"/>
      <point x="303" y="305" type="curve" smooth="yes"/>
      <point x="303" y="297"/>
      <point x="308" y="292"/>
      <point x="318" y="292" type="curve" smooth="yes"/>
      <point x="408" y="292" type="line" smooth="yes"/>
      <point x="417.0" y="292.0"/>
      <point x="421" y="297"/>
      <point x="421" y="306" type="curve" smooth="yes"/>
      <point x="421" y="313"/>
      <point x="417" y="317"/>
      <point x="412" y="320" type="curve" smooth="yes"/>
      <point x="402" y="326"/>
      <point x="394" y="329"/>
      <point x="388" y="338" type="curve" smooth="yes"/>
      <point x="344" y="402" type="line"/>
    </contour>
  </outline>
</glyph>
<glyph name="twosuperior" format="2">
  <advance width="374"/>
  <unicode hex="00B2"/>
  <outline>
    <contour>
      <point x="149" y="473.0" type="curve" smooth="yes"/>
      <point x="70.53155936550186" y="426.7237401386293"/>
      <point x="41.0" y="383.9923076923077"/>
      <point x="41.0" y="340" type="curve" smooth="yes"/>
      <point x="41.0" y="314.8837209302326"/>
      <point x="55.0" y="300.0"/>
      <point x="78" y="300.0" type="curve" smooth="yes"/>
      <point x="108.17647058823529" y="300.0"/>
      <point x="105.94117647058823" y="342.0"/>
      <point x="135" y="342" type="curve" smooth="yes"/>
      <point x="163.5" y="342.0"/>
      <point x="200.55" y="298.0"/>
      <point x="249" y="298" type="curve" smooth="yes"/>
      <point x="305.0" y="298.0"/>
      <point x="340.0" y="345.36633663366337"/>
      <point x="340" y="402.0" type="curve" smooth="yes"/>
      <point x="340" y="426"/>
      <point x="332" y="444"/>
      <point x="318" y="444" type="curve" smooth="yes"/>
      <point x="308" y="444"/>
      <point x="299" y="438"/>
      <point x="293" y="423" type="curve" smooth="yes"/>
      <point x="284.2560868663101" y="401.14021716577525"/>
      <point x="273.0" y="392.0"/>
      <point x="253" y="392" type="curve" smooth="yes"/>
      <point x="233.0" y="392.0"/>
      <point x="202.0" y="410.0"/>
      <point x="168" y="410.0" type="curve" smooth="yes"/>
      <point x="124.0" y="410.0"/>
      <point x="100.0" y="375.0"/>
      <point x="100" y="339" type="curve"/>
      <point x="108" y="340" type="line"/>
      <point x="108.0" y="377.17391304347825"/>
      <point x="123.63971237821673" y="405.83674467137945"/>
      <point x="188" y="435" type="curve" smooth="yes"/>
      <point x="280.1315491813217" y="476.0586251786325"/>
      <point x="316.0" y="514.3511450381679"/>
      <point x="316" y="570" type="curve" smooth="yes"/>
      <point x="316.0" y="626.6161616161617"/>
      <point x="271.0" y="665.0"/>
      <point x="196" y="665.0" type="curve" smooth="yes"/>
      <point x="105.0" y="665.0"/>
      <point x="42.0" y="607.5"/>
      <point x="42" y="550" type="curve" smooth="yes"/>
      <point x="42.0" y="518"/>
      <point x="59.0" y="501.0"/>
      <point x="88" y="501" type="curve" smooth="yes"/>
      <point x="116.0" y="501.0"/>
      <point x="140.0" y="520.0"/>
      <point x="140.0" y="554" type="curve" smooth="yes"/>
      <point x="140.0" y="585" type="line" smooth="yes"/>
      <point x="140.0" y="601.0"/>
      <point x="148.0" y="613.0"/>
      <point x="170" y="613" type="curve" smooth="yes"/>
      <point x="193.0" y="613.0"/>
      <point x="212.0" y="596.3584905660377"/>
      <point x="212" y="564" type="curve" smooth="yes"/>
      <point x="212.0" y="524.2528735632184"/>
      <point x="192.14615454935813" y="498.0849735752082"/>
    </contour>
  </outline>
</glyph>
<glyph name="Oslash" format="2">
  <advance width="788"/>
  <unicode hex="00D8"/>
  <outline>
    <contour>
      <point x="719" y="610" type="curve" smooth="yes"/>
      <point x="739" y="628"/>
      <point x="748" y="652"/>
      <point x="748.0" y="673" type="curve" smooth="yes"/>
      <point x="748.0" y="695"/>
      <point x="729.0" y="716.0"/>
      <point x="704" y="716.0" type="curve" smooth="yes"/>
      <point x="678" y="716"/>
      <point x="657" y="702"/>
      <point x="636" y="675" type="curve" smooth="yes"/>
      <point x="561" y="579"/>
      <point x="483" y="467"/>
      <point x="389" y="367" type="curve" smooth="yes"/>
      <point x="300" y="272"/>
      <point x="160" y="168"/>
      <point x="74" y="85" type="curve" smooth="yes"/>
      <point x="53" y="65"/>
      <point x="46" y="44"/>
      <point x="46" y="21" type="curve" smooth="yes"/>
      <point x="46.0" y="-2.0"/>
      <point x="62" y="-22.0"/>
      <point x="93" y="-22.0" type="curve" smooth="yes"/>
      <point x="122" y="-22.0"/>
      <point x="141" y="-4"/>
      <point x="165" y="25" type="curve" smooth="yes"/>
      <point x="239" y="115"/>
      <point x="340" y="242"/>
      <point x="428" y="335" type="curve" smooth="yes"/>
      <point x="534" y="446"/>
      <point x="629" y="525"/>
    </contour>
    <component base="O"/>
  </outline>
</glyph>
<glyph name="eth" format="2">
  <advance width="592"/>
  <unicode hex="00F0"/>
  <outline>
    <contour>
      <point x="110" y="534" type="curve" smooth="yes"/>
      <point x="110.0" y="522.625"/>
      <point x="120.86956521739131" y="513.0"/>
      <point x="135" y="513" type="curve" smooth="yes"/>
      <point x="143" y="513"/>
      <point x="153" y="516"/>
      <point x="163" y="523" type="curve" smooth="yes"/>
      <point x="376" y="666" type="line" smooth="yes"/>
      <point x="390.60115020437183" y="675.8026501372074"/>
      <point x="395.0" y="684.0"/>
      <point x="395" y="696" type="curve" smooth="yes"/>
      <point x="395.0" y="709.0"/>
      <point x="388.0" y="720.0"/>
      <point x="373" y="720" type="curve" smooth="yes"/>
      <point x="363.0" y="720.0"/>
      <point x="354.8146390789043" y="719.1104442999448"/>
      <point x="337" y="707" type="curve" smooth="yes"/>
      <point x="134" y="569" type="line" smooth="yes"/>
      <point x="115.21048829627054" y="556.2268344083021"/>
      <point x="110.0" y="547.125"/>
    </contour>
    <contour>
      <point x="441" y="382" type="line"/>
      <point x="441.0" y="435.0"/>
      <point x="368.2682926829268" y="479.0"/>
      <point x="273" y="479" type="curve" smooth="yes"/>
      <point x="121.39688715953307" y="479.0"/>
      <point x="20.0" y="363.0"/>
      <point x="20" y="220" type="curve" smooth="yes"/>
      <point x="20.0" y="84.0"/>
      <point x="124.16666666666666" y="-15.0"/>
      <point x="270" y="-15" type="curve" smooth="yes"/>
      <point x="436.39739413680786" y="-15.0"/>
      <point x="567.0" y="81.0"/>
      <point x="567" y="259" type="curve" smooth="yes"/>
      <point x="567.0" y="460.0"/>
      <point x="433.930413401786" y="603.4388468237929"/>
      <point x="167" y="710" type="curve" smooth="yes"/>
      <point x="159" y="713"/>
      <point x="146" y="715"/>
      <point x="138" y="715" type="curve" smooth="yes"/>
      <point x="121" y="715"/>
      <point x="103" y="707"/>
      <point x="103" y="683" type="curve" smooth="yes"/>
      <point x="103" y="666"/>
      <point x="111" y="651"/>
      <point x="135" y="639" type="curve" smooth="yes"/>
      <point x="311.0881571359803" y="560.1384326937022"/>
      <point x="408.0" y="411.0"/>
      <point x="408" y="240" type="curve" smooth="yes"/>
      <point x="408.0" y="118.68539325842697"/>
      <point x="363.4621848739496" y="63.0"/>
      <point x="302" y="63" type="curve" smooth="yes"/>
      <point x="235.625" y="63.0"/>
      <point x="185.0" y="141.56353591160223"/>
      <point x="185" y="243" type="curve" smooth="yes"/>
      <point x="185.0" y="338.0"/>
      <point x="232.36666666666667" y="401.0"/>
      <point x="301" y="401" type="curve" smooth="yes"/>
      <point x="362.40816326530614" y="401.0"/>
      <point x="403.0" y="373.0"/>
      <point x="403" y="329" type="curve"/>
    </contour>
  </outline>
</glyph>
<glyph name="thorn" format="2">
  <advance width="631"/>
  <unicode hex="00FE"/>
  <outline>
    <contour>
      <point x="244" y="692" type="line" smooth="yes"/>
      <point x="244.0" y="712.0"/>
      <point x="233" y="725"/>
      <point x="215" y="725" type="curve" smooth="yes"/>
      <point x="198" y="725"/>
      <point x="183" y="719"/>
      <point x="157" y="709" type="curve" smooth="yes"/>
      <point x="55" y="670" type="line" smooth="yes"/>
      <point x="32" y="661"/>
      <point x="24" y="647"/>
      <point x="24" y="634" type="curve" smooth="yes"/>
      <point x="24" y="615"/>
      <point x="37" y="606"/>
      <point x="59" y="606" type="curve" smooth="yes"/>
      <point x="66" y="606" type="line" smooth="yes"/>
      <point x="80" y="606"/>
      <point x="96.0" y="595.0"/>
      <point x="96" y="570" type="curve" smooth="yes"/>
      <point x="96" y="-134" type="line" smooth="yes"/>
      <point x="96.0" y="-164.0"/>
      <point x="81" y="-170"/>
      <point x="64" y="-177" type="curve" smooth="yes"/>
      <point x="54" y="-181" type="line" smooth="yes"/>
      <point x="36" y="-188"/>
      <point x="26" y="-195"/>
      <point x="26" y="-213" type="curve" smooth="yes"/>
      <point x="26" y="-233"/>
      <point x="38" y="-245"/>
      <point x="57" y="-245" type="curve" smooth="yes"/>
      <point x="278" y="-245" type="line" smooth="yes"/>
      <point x="301" y="-245"/>
      <point x="313" y="-235"/>
      <point x="313" y="-214" type="curve" smooth="yes"/>
      <point x="313" y="-195"/>
      <point x="303" y="-189"/>
      <point x="280" y="-180" type="curve" smooth="yes"/>
      <point x="264" y="-174" type="line" smooth="yes"/>
      <point x="251" y="-169"/>
      <point x="244.0" y="-156.0"/>
      <point x="244" y="-134" type="curve" smooth="yes"/>
    </contour>
    <contour>
      <point x="185" y="335" type="line"/>
      <point x="221" y="370"/>
      <point x="268" y="386.0"/>
      <point x="319" y="386" type="curve" smooth="yes"/>
      <point x="407" y="386.0"/>
      <point x="455.0" y="310"/>
      <point x="455" y="222" type="curve" smooth="yes"/>
      <point x="455.0" y="137"/>
      <point x="403" y="69.0"/>
      <point x="318" y="69" type="curve" smooth="yes"/>
      <point x="267" y="69.0"/>
      <point x="220" y="86"/>
      <point x="193" y="129" type="curve"/>
      <point x="157" y="79" type="line"/>
      <point x="202" y="16"/>
      <point x="272" y="-14.0"/>
      <point x="349" y="-14.0" type="curve" smooth="yes"/>
      <point x="506" y="-14.0"/>
      <point x="611.0" y="100"/>
      <point x="611" y="257" type="curve" smooth="yes"/>
      <point x="611.0" y="389.0"/>
      <point x="523" y="490.0"/>
      <point x="391" y="490" type="curve" smooth="yes"/>
      <point x="301" y="490.0"/>
      <point x="227" y="442"/>
      <point x="165" y="377" type="curve"/>
    </contour>
  </outline>
</glyph>
<glyph name="dotlessi" format="2">
  <advance width="313"/>
  <unicode hex="0131"/>
  <outline>
    <contour>
      <point x="239" y="457" type="line" smooth="yes"/>
      <point x="239.0" y="477.0"/>
      <point x="228" y="490"/>
      <point x="210" y="490" type="curve" smooth="yes"/>
      <point x="193" y="490"/>
      <point x="178" y="484"/>
      <point x="152" y="474" type="curve" smooth="yes"/>
      <point x="50" y="435" type="line" smooth="yes"/>
      <point x="28" y="427"/>
      <point x="20.0" y="411"/>
      <point x="20" y="398" type="curve" smooth="yes"/>
      <point x="20.0" y="378"/>
      <point x="32" y="369"/>
      <point x="52" y="369" type="curve" smooth="yes"/>
      <point x="61" y="369" type="line" smooth="yes"/>
      <point x="75" y="369"/>
      <point x="91.0" y="358.0"/>
      <point x="91" y="333" type="curve" smooth="yes"/>
      <point x="91" y="107" type="line" smooth="yes"/>
      <point x="91.0" y="87.0"/>
      <point x="80" y="77"/>
      <point x="66" y="71" type="curve" smooth="yes"/>
      <point x="42" y="61" type="line" smooth="yes"/>
      <point x="24.793853666882686" y="53.83077236120112"/>
      <point x="17.0" y="47.42424242424242"/>
      <point x="17" y="33" type="curve" smooth="yes"/>
      <point x="17.0" y="12.0"/>
      <point x="30.0" y="0"/>
      <point x="52" y="0" type="curve" smooth="yes"/>
      <point x="275" y="0" type="line" smooth="yes"/>
      <point x="294.0" y="0.0"/>
      <point x="308.0" y="10.0"/>
      <point x="308" y="31" type="curve" smooth="yes"/>
      <point x="308.0" y="46.1875"/>
      <point x="298.98996708514056" y="49.874363567976246"/>
      <point x="282" y="58" type="curve" smooth="yes"/>
      <point x="259" y="69" type="line" smooth="yes"/>
      <point x="246" y="75"/>
      <point x="239.0" y="86.0"/>
      <point x="239" y="107" type="curve" smooth="yes"/>
    </contour>
  </outline>
</glyph>
<glyph name="Lslash" format="2">
  <advance width="615"/>
  <unicode hex="0141"/>
  <outline>
    <contour>
      <point x="67" y="245.0" type="curve" smooth="yes"/>
      <point x="73.27272727272727" y="245.0"/>
      <point x="85.0246599361678" y="249.2917999114176"/>
      <point x="90" y="251" type="curve" smooth="yes"/>
      <point x="385" y="352" type="line" smooth="yes"/>
      <point x="406" y="359"/>
      <point x="419.0" y="372.0"/>
      <point x="419.0" y="391" type="curve" smooth="yes"/>
      <point x="419.0" y="402"/>
      <point x="410.375" y="415.0"/>
      <point x="396" y="415.0" type="curve" smooth="yes"/>
      <point x="389.53846153846155" y="415.0"/>
      <point x="383.7829709570523" y="414.0370039785901"/>
      <point x="360" y="406" type="curve" smooth="yes"/>
      <point x="70" y="308" type="line" smooth="yes"/>
      <point x="50.2605845735566" y="301.2924316512086"/>
      <point x="41.0" y="286.0"/>
      <point x="41" y="271" type="curve" smooth="yes"/>
      <point x="41.0" y="255.59259259259258"/>
      <point x="52.55555555555556" y="245.0"/>
    </contour>
    <component base="L"/>
  </outline>
</glyph>
<glyph name="Eng" format="2">
  <advance width="784"/>
  <unicode hex="014A"/>
  <outline>
    <contour>
      <point x="596" y="-108" type="curve" smooth="yes"/>
      <point x="596.0" y="-148.9322033898305"/>
      <point x="577.0" y="-177.0"/>
      <point x="548" y="-177" type="curve" smooth="yes"/>
      <point x="532" y="-177.0"/>
      <point x="523.0" y="-166.0"/>
      <point x="523" y="-146" type="curve" smooth="yes"/>
      <point x="523" y="-127" type="line" smooth="yes"/>
      <point x="523" y="-83"/>
      <point x="496.93333333333334" y="-54.0"/>
      <point x="455" y="-54" type="curve" smooth="yes"/>
      <point x="409.0" y="-54.0"/>
      <point x="380" y="-84"/>
      <point x="380" y="-130" type="curve" smooth="yes"/>
      <point x="380.0" y="-194"/>
      <point x="441.0" y="-245.0"/>
      <point x="530" y="-245" type="curve" smooth="yes"/>
      <point x="618" y="-245"/>
      <point x="685.0" y="-185.8955223880597"/>
      <point x="685" y="-101" type="curve" smooth="yes"/>
      <point x="685.0" y="-52.611111111111114"/>
      <point x="683" y="-8.875"/>
      <point x="683" y="33" type="curve" smooth="yes"/>
      <point x="683" y="527" type="line" smooth="yes"/>
      <point x="683.0" y="558.6666666666666"/>
      <point x="697.2281772415614" y="589.2145430924188"/>
      <point x="722" y="602" type="curve" smooth="yes"/>
      <point x="740" y="611" type="line" smooth="yes"/>
      <point x="763" y="623"/>
      <point x="776.0" y="643.4489795918367"/>
      <point x="776" y="661" type="curve" smooth="yes"/>
      <point x="776.0" y="683.4545454545455"/>
      <point x="761.0" y="700"/>
      <point x="738" y="700" type="curve" smooth="yes"/>
      <point x="538" y="700" type="line" smooth="yes"/>
      <point x="510.8235294117647" y="700"/>
      <point x="494.0" y="690.3448275862069"/>
      <point x="494" y="665" type="curve" smooth="yes"/>
      <point x="494.0" y="645.3157894736842"/>
      <point x="508.44800108646365" y="624.0231106282383"/>
      <point x="531" y="614" type="curve" smooth="yes"/>
      <point x="558" y="602" type="line" smooth="yes"/>
      <point x="591.8574532140954" y="587.0628882878991"/>
      <point x="597" y="562.0"/>
      <point x="597" y="527" type="curve" smooth="yes"/>
      <point x="597" y="149" type="line"/>
      <point x="653" y="196" type="line"/>
      <point x="257" y="660" type="line" smooth="yes"/>
      <point x="229" y="693"/>
      <point x="217.0" y="700.0"/>
      <point x="195" y="700" type="curve" smooth="yes"/>
      <point x="66" y="700" type="line" smooth="yes"/>
      <point x="43" y="700"/>
      <point x="29.0" y="690.0"/>
      <point x="29" y="668" type="curve" smooth="yes"/>
      <point x="29" y="646.0"/>
      <point x="42" y="627"/>
      <point x="65" y="608" type="curve" smooth="yes"/>
      <point x="84" y="592" type="line" smooth="yes"/>
      <point x="108.40538305054949" y="571.4480984837478"/>
      <point x="125" y="553.5090909090908"/>
      <point x="125" y="519" type="curve" smooth="yes"/>
      <point x="125" y="180" type="line" smooth="yes"/>
      <point x="125" y="142"/>
      <point x="112.58255983365117" y="110.75262804957107"/>
      <point x="86" y="95" type="curve" smooth="yes"/>
      <point x="59" y="79" type="line" smooth="yes"/>
      <point x="38.42709251871524" y="66.80864741849791"/>
      <point x="26.0" y="57.0"/>
      <point x="26" y="35" type="curve" smooth="yes"/>
      <point x="26.0" y="9.655172413793103"/>
      <point x="43" y="0"/>
      <point x="67" y="0" type="curve" smooth="yes"/>
      <point x="264" y="0" type="line" smooth="yes"/>
      <point x="291.0" y="0"/>
      <point x="309.0" y="14.25"/>
      <point x="309" y="38" type="curve" smooth="yes"/>
      <point x="309.0" y="58.869565217391305"/>
      <point x="302.50682054507917" y="67.60681669383904"/>
      <point x="286" y="78" type="curve" smooth="yes"/>
      <point x="259" y="95" type="line" smooth="yes"/>
      <point x="223.49729526892347" y="117.35355483067782"/>
      <point x="211" y="140.33333333333334"/>
      <point x="211" y="180" type="curve" smooth="yes"/>
      <point x="211" y="545" type="line"/>
      <point x="169" y="519" type="line"/>
      <point x="533" y="98" type="line" smooth="yes"/>
      <point x="575" y="50"/>
      <point x="596.0" y="2.0"/>
      <point x="596.0" y="-56" type="curve" smooth="yes"/>
      <point x="596.0" y="-69.41935483870968"/>
      <point x="596.0" y="-88.70967741935485"/>
    </contour>
  </outline>
</glyph>
<glyph name="eng" format="2">
  <advance width="622"/>
  <unicode hex="014B"/>
  <outline>
    <contour>
      <point x="242" y="456" type="line" smooth="yes"/>
      <point x="242" y="476"/>
      <point x="231" y="490"/>
      <point x="213" y="490" type="curve" smooth="yes"/>
      <point x="195" y="490"/>
      <point x="180" y="483"/>
      <point x="154" y="473" type="curve" smooth="yes"/>
      <point x="50" y="434" type="line" smooth="yes"/>
      <point x="27" y="424"/>
      <point x="19" y="410"/>
      <point x="19" y="397" type="curve" smooth="yes"/>
      <point x="19" y="376"/>
      <point x="31" y="367"/>
      <point x="52" y="367" type="curve" smooth="yes"/>
      <point x="61" y="367" type="line" smooth="yes"/>
      <point x="75" y="367"/>
      <point x="91" y="356"/>
      <point x="91" y="330" type="curve" smooth="yes"/>
      <point x="91" y="112" type="line" smooth="yes"/>
      <point x="91" y="91"/>
      <point x="79" y="76"/>
      <point x="59" y="68" type="curve" smooth="yes"/>
      <point x="52" y="65" type="line" smooth="yes"/>
      <point x="33" y="58"/>
      <point x="25" y="49"/>
      <point x="25" y="33" type="curve" smooth="yes"/>
      <point x="25" y="12"/>
      <point x="39" y="0"/>
      <point x="62" y="0" type="curve" smooth="yes"/>
      <point x="267" y="0" type="line" smooth="yes"/>
      <point x="294" y="0"/>
      <point x="308" y="10"/>
      <point x="308" y="32" type="curve" smooth="yes"/>
      <point x="308" y="51"/>
      <point x="298" y="58"/>
      <point x="279" y="65" type="curve" smooth="yes"/>
      <point x="263" y="71" type="line" smooth="yes"/>
      <point x="249" y="76"/>
      <point x="242" y="90"/>
      <point x="242" y="118" type="curve" smooth="yes"/>
    </contour>
    <contour>
      <point x="553" y="332" type="line" smooth="yes"/>
      <point x="542" y="443"/>
      <point x="485" y="490"/>
      <point x="418" y="490" type="curve" smooth="yes"/>
      <point x="333.0" y="490"/>
      <point x="269" y="456"/>
      <point x="212" y="395" type="curve" smooth="yes"/>
      <point x="186" y="367" type="line"/>
      <point x="221" y="323" type="line" smooth="yes"/>
      <point x="240" y="343" type="line" smooth="yes"/>
      <point x="259" y="363"/>
      <point x="291.0" y="383.0"/>
      <point x="326" y="383" type="curve" smooth="yes"/>
      <point x="369" y="383"/>
      <point x="397.0355036314374" y="361.25206441191335"/>
      <point x="404" y="293" type="curve"/>
      <point x="429" y="52" type="line" smooth="yes"/>
      <point x="439" y="-40"/>
      <point x="498.0" y="-77.0"/>
      <point x="498" y="-131" type="curve" smooth="yes"/>
      <point x="498" y="-162"/>
      <point x="480.4" y="-184.0"/>
      <point x="454" y="-184" type="curve" smooth="yes"/>
      <point x="434.0" y="-184.0"/>
      <point x="423" y="-170"/>
      <point x="423" y="-145" type="curve" smooth="yes"/>
      <point x="423" y="-130" type="line" smooth="yes"/>
      <point x="423" y="-89.19999999999999"/>
      <point x="395.77777777777777" y="-62.0"/>
      <point x="353" y="-62" type="curve" smooth="yes"/>
      <point x="310.75757575757575" y="-62.0"/>
      <point x="285" y="-91"/>
      <point x="285" y="-134" type="curve" smooth="yes"/>
      <point x="285.0" y="-197.0"/>
      <point x="347" y="-245"/>
      <point x="438" y="-245.0" type="curve" smooth="yes"/>
      <point x="550.3404255319149" y="-245.0"/>
      <point x="630" y="-183"/>
      <point x="630" y="-92" type="curve" smooth="yes"/>
      <point x="630.0" y="-36.0"/>
      <point x="587" y="2"/>
      <point x="579" y="80" type="curve" smooth="yes"/>
    </contour>
  </outline>
</glyph>
<glyph name="OE" format="2">
  <advance width="1102"/>
  <unicode hex="0152"/>
  <outline>
    <contour>
      <point x="564" y="700" type="line"/>
      <point x="525.0" y="700.0"/>
      <point x="463.5228215767635" y="713.0"/>
      <point x="397" y="713" type="curve" smooth="yes"/>
      <point x="170" y="713"/>
      <point x="30" y="550"/>
      <point x="30" y="354" type="curve" smooth="yes"/>
      <point x="30" y="135"/>
      <point x="172" y="-15"/>
      <point x="397" y="-15" type="curve" smooth="yes"/>
      <point x="483" y="-15"/>
      <point x="553" y="0"/>
      <point x="597" y="0" type="curve"/>
      <point x="551" y="154" type="line"/>
      <point x="551.0" y="96"/>
      <point x="511.0" y="77.0"/>
      <point x="445" y="77" type="curve" smooth="yes"/>
      <point x="320" y="77"/>
      <point x="200" y="223"/>
      <point x="200" y="415" type="curve" smooth="yes"/>
      <point x="200.0" y="543.6057692307693"/>
      <point x="267.7426900584795" y="629.0"/>
      <point x="381" y="629" type="curve" smooth="yes"/>
      <point x="483.94444444444446" y="629.0"/>
      <point x="551.0" y="580.0"/>
      <point x="551" y="507" type="curve"/>
    </contour>
    <component base="E" xOffset="431"/>
  </outline>
</glyph>
<glyph name="commercialminussign" format="2">
  <advance width="531"/>
  <unicode hex="2052"/>
  <outline>
    <contour>
      <point x="471" y="551" type="curve" smooth="yes"/>
      <point x="496" y="583"/>
      <point x="501" y="603"/>
      <point x="501" y="630" type="curve" smooth="yes"/>
      <point x="501.0" y="657.0"/>
      <point x="477.0" y="677.0"/>
      <point x="443" y="677" type="curve" smooth="yes"/>
      <point x="411" y="677"/>
      <point x="385" y="660"/>
      <point x="364" y="625" type="curve" smooth="yes"/>
      <point x="322" y="549"/>
      <point x="302" y="449"/>
      <point x="244" y="349" type="curve" smooth="yes"/>
      <point x="180" y="239"/>
      <point x="120" y="193"/>
      <point x="71" y="131" type="curve" smooth="yes"/>
      <point x="35" y="86"/>
      <point x="30" y="52"/>
      <point x="30" y="24" type="curve" smooth="yes"/>
      <point x="30.0" y="1.0"/>
      <point x="51.0" y="-23"/>
      <point x="84" y="-23" type="curve" smooth="yes"/>
      <point x="116" y="-23"/>
      <point x="145" y="-10"/>
      <point x="169" y="37" type="curve" smooth="yes"/>
      <point x="209" y="110"/>
      <point x="206" y="194"/>
      <point x="285" y="322" type="curve" smooth="yes"/>
      <point x="354" y="434"/>
      <point x="426" y="493"/>
    </contour>
    <component base="periodcentered" xOffset="208" yOffset="-202"/>
    <component base="periodcentered" xOffset="-29" yOffset="286"/>
  </outline>
</glyph>
<glyph name="naira" format="2">
  <advance width="750"/>
  <unicode hex="20A6"/>
  <outline>
    <contour>
      <point x="316" y="32" type="curve" smooth="yes"/>
      <point x="316.0" y="53.51724137931035"/>
      <point x="307.99560861513964" y="61.895209670460915"/>
      <point x="291" y="71.0" type="curve" smooth="yes"/>
      <point x="263" y="86" type="line" smooth="yes"/>
      <point x="234" y="101"/>
      <point x="214.0" y="111.0"/>
      <point x="214" y="132" type="curve" smooth="yes"/>
      <point x="214" y="488" type="line"/>
      <point x="205" y="481" type="line"/>
      <point x="458" y="82" type="line" smooth="yes"/>
      <point x="471.41911340407836" y="60.83705040226378"/>
      <point x="475.0" y="57.09433962264151"/>
      <point x="475" y="49" type="curve" smooth="yes"/>
      <point x="475.0" y="16.89655172413793"/>
      <point x="494" y="0"/>
      <point x="523" y="0.0" type="curve" smooth="yes"/>
      <point x="626" y="0.0" type="line" smooth="yes"/>
      <point x="651.2" y="0.0"/>
      <point x="671.0" y="16.0"/>
      <point x="671" y="40" type="curve" smooth="yes"/>
      <point x="671.0" y="66.26530612244898"/>
      <point x="623" y="86.95918367346938"/>
      <point x="623" y="118" type="curve" smooth="yes"/>
      <point x="623" y="510" type="line" smooth="yes"/>
      <point x="623.0" y="530.0"/>
      <point x="641" y="547"/>
      <point x="663" y="558" type="curve" smooth="yes"/>
      <point x="697" y="575" type="line" smooth="yes"/>
      <point x="716.4008960652125" y="584.7004480326062"/>
      <point x="720.0" y="597.8620689655172"/>
      <point x="720" y="614" type="curve" smooth="yes"/>
      <point x="720.0" y="633.8333333333334"/>
      <point x="705.0" y="648"/>
      <point x="687" y="648" type="curve" smooth="yes"/>
      <point x="465" y="648" type="line" smooth="yes"/>
      <point x="446.0" y="648"/>
      <point x="435.0" y="640.5"/>
      <point x="435" y="618" type="curve" smooth="yes"/>
      <point x="435.0" y="599.8823529411765"/>
      <point x="442.9982457688352" y="584.9722305056753"/>
      <point x="467" y="574" type="curve" smooth="yes"/>
      <point x="502" y="558" type="line" smooth="yes"/>
      <point x="533" y="544"/>
      <point x="542.0" y="533.0"/>
      <point x="542" y="510" type="curve" smooth="yes"/>
      <point x="542" y="144" type="line"/>
      <point x="562" y="151" type="line"/>
      <point x="270" y="607" type="line" smooth="yes"/>
      <point x="246" y="644"/>
      <point x="230.0" y="648.0"/>
      <point x="209" y="648" type="curve" smooth="yes"/>
      <point x="65" y="648" type="line" smooth="yes"/>
      <point x="45.0" y="648"/>
      <point x="33.0" y="637.9565217391304"/>
      <point x="33" y="615" type="curve" smooth="yes"/>
      <point x="33.0" y="595.0"/>
      <point x="41" y="585"/>
      <point x="62" y="575" type="curve" smooth="yes"/>
      <point x="93" y="560" type="line" smooth="yes"/>
      <point x="118" y="548"/>
      <point x="133.0" y="529.0"/>
      <point x="133" y="502" type="curve" smooth="yes"/>
      <point x="133" y="132" type="line" smooth="yes"/>
      <point x="133" y="112"/>
      <point x="117" y="96"/>
      <point x="93" y="86" type="curve" smooth="yes"/>
      <point x="64" y="74" type="line" smooth="yes"/>
      <point x="40.209518951879424" y="64.15566301457079"/>
      <point x="30.0" y="50.85714285714286"/>
      <point x="30" y="29" type="curve" smooth="yes"/>
      <point x="30.0" y="7.631578947368421"/>
      <point x="43.0" y="0.0"/>
      <point x="62" y="0.0" type="curve" smooth="yes"/>
      <point x="279" y="0.0" type="line" smooth="yes"/>
      <point x="300.0" y="0.0"/>
      <point x="316.0" y="11.636363636363637"/>
    </contour>
    <contour>
      <point x="650.0" y="265.0" type="curve" smooth="yes"/>
      <point x="697.0" y="265.0"/>
      <point x="717.0" y="292.72972972972974"/>
      <point x="717.0" y="322.0" type="curve" smooth="yes"/>
      <point x="717.0" y="359.8181818181818"/>
      <point x="696.0" y="386.0"/>
      <point x="650.0" y="386.0" type="curve" smooth="yes"/>
      <point x="606.0" y="386.0"/>
      <point x="566.0" y="341.0"/>
      <point x="366.0" y="341.0" type="curve" smooth="yes"/>
      <point x="190.33955223880596" y="341.0"/>
      <point x="155.99253731343282" y="383.0"/>
      <point x="103.0" y="383.0" type="curve" smooth="yes"/>
      <point x="53.56716417910448" y="383.0"/>
      <point x="31.0" y="351.22222222222223"/>
      <point x="31.0" y="318.0" type="curve" smooth="yes"/>
      <point x="31.0" y="288.72972972972974"/>
      <point x="52.53846153846154" y="261.0"/>
      <point x="101.0" y="261.0" type="curve" smooth="yes"/>
      <point x="149.0925925925926" y="261.0"/>
      <point x="187.37037037037038" y="303.0"/>
      <point x="366.0" y="303.0" type="curve" smooth="yes"/>
      <point x="564.0" y="303.0"/>
      <point x="606.0" y="265.0"/>
    </contour>
  </outline>
</glyph>
<glyph name="peseta" format="2">
  <advance width="1099"/>
  <unicode hex="20A7"/>
  <outline>
    <contour>
      <point x="519" y="397" type="line" smooth="yes"/>
      <point x="537" y="397"/>
      <point x="543.0" y="375.0"/>
      <point x="543" y="354" type="curve" smooth="yes"/>
      <point x="544" y="101" type="line" smooth="yes"/>
      <point x="544.2898030908531" y="27.679818014163104"/>
      <point x="590.5504587155963" y="-15.0"/>
      <point x="662" y="-15" type="curve" smooth="yes"/>
      <point x="707.0" y="-15.0"/>
      <point x="763.0" y="14.0"/>
      <point x="788" y="42" type="curve" smooth="yes"/>
      <point x="804" y="59"/>
      <point x="809.0" y="68.0"/>
      <point x="809" y="83" type="curve" smooth="yes"/>
      <point x="809.0" y="92.0"/>
      <point x="802" y="100.0"/>
      <point x="792" y="100" type="curve" smooth="yes"/>
      <point x="786.0" y="100.0"/>
      <point x="780" y="99"/>
      <point x="772" y="89" type="curve" smooth="yes"/>
      <point x="755" y="69"/>
      <point x="736.0" y="62.0"/>
      <point x="714" y="62" type="curve" smooth="yes"/>
      <point x="675.6" y="62.0"/>
      <point x="650.1211534675499" y="88.53861298005934"/>
      <point x="650" y="137" type="curve" smooth="yes"/>
      <point x="649" y="537" type="line" smooth="yes"/>
      <point x="649.0" y="553.0"/>
      <point x="638" y="563.0"/>
      <point x="622" y="563" type="curve" smooth="yes"/>
      <point x="611" y="563.0"/>
      <point x="601" y="555"/>
      <point x="587" y="538" type="curve" smooth="yes"/>
      <point x="543" y="486" type="line" smooth="yes"/>
      <point x="534" y="475"/>
      <point x="528.0" y="465.0"/>
      <point x="515" y="465" type="curve" smooth="yes"/>
      <point x="472" y="465" type="line" smooth="yes"/>
      <point x="452.5" y="465"/>
      <point x="442.0" y="447.0"/>
      <point x="442" y="427" type="curve" smooth="yes"/>
      <point x="442.0" y="415.0"/>
      <point x="450.72727272727275" y="397"/>
      <point x="474" y="397" type="curve" smooth="yes"/>
    </contour>
    <contour>
      <point x="558" y="398" type="line"/>
      <point x="558.0" y="398.0"/>
      <point x="684.3098591549295" y="398.0"/>
      <point x="710" y="398" type="curve" smooth="yes"/>
      <point x="736" y="398.0"/>
      <point x="754.0" y="408"/>
      <point x="754" y="432" type="curve" smooth="yes"/>
      <point x="754.0" y="454"/>
      <point x="736" y="465.0"/>
      <point x="708" y="465" type="curve" smooth="yes"/>
      <point x="691.9208633093525" y="465.0"/>
      <point x="559.0" y="465.0"/>
      <point x="559" y="465" type="curve"/>
    </contour>
    <contour>
      <point x="919" y="41" type="curve" smooth="yes"/>
      <point x="881" y="41.0"/>
      <point x="845" y="60"/>
      <point x="818" y="114" type="curve" smooth="yes"/>
      <point x="803" y="143"/>
      <point x="792.0" y="153.0"/>
      <point x="781" y="153" type="curve" smooth="yes"/>
      <point x="765" y="153.0"/>
      <point x="758.0" y="145.0"/>
      <point x="758" y="129" type="curve" smooth="yes"/>
      <point x="758.0" y="115"/>
      <point x="762" y="103"/>
      <point x="767" y="79" type="curve" smooth="yes"/>
      <point x="781" y="19" type="line" smooth="yes"/>
      <point x="786" y="-3"/>
      <point x="799.0" y="-15.0"/>
      <point x="815" y="-15" type="curve" smooth="yes"/>
      <point x="833" y="-15"/>
      <point x="833" y="0"/>
      <point x="846" y="0" type="curve" smooth="yes"/>
      <point x="863.0" y="0.0"/>
      <point x="884" y="-15"/>
      <point x="926" y="-15.0" type="curve" smooth="yes"/>
      <point x="1016" y="-15.0"/>
      <point x="1079.0" y="43.0"/>
      <point x="1079" y="131" type="curve" smooth="yes"/>
      <point x="1079.0" y="191.0"/>
      <point x="1043" y="243"/>
      <point x="961" y="273" type="curve" smooth="yes"/>
      <point x="885" y="302"/>
      <point x="857.0" y="329.0"/>
      <point x="857" y="370" type="curve" smooth="yes"/>
      <point x="857.0" y="402.0"/>
      <point x="884.0" y="423.0"/>
      <point x="921" y="423" type="curve" smooth="yes"/>
      <point x="954" y="423.0"/>
      <point x="983" y="401"/>
      <point x="1006" y="348" type="curve" smooth="yes"/>
      <point x="1018" y="321"/>
      <point x="1030" y="310.0"/>
      <point x="1045" y="310" type="curve" smooth="yes"/>
      <point x="1065.0" y="310.0"/>
      <point x="1071.0" y="322.0"/>
      <point x="1071" y="340" type="curve" smooth="yes"/>
      <point x="1071" y="346"/>
      <point x="1068" y="357"/>
      <point x="1065" y="366" type="curve" smooth="yes"/>
      <point x="1041" y="451" type="line" smooth="yes"/>
      <point x="1034" y="475"/>
      <point x="1024.0" y="485.0"/>
      <point x="1012" y="485" type="curve" smooth="yes"/>
      <point x="1000.0" y="485.0"/>
      <point x="995" y="468.0"/>
      <point x="979" y="468" type="curve" smooth="yes"/>
      <point x="969" y="468.0"/>
      <point x="951.0" y="479.0"/>
      <point x="914" y="479" type="curve" smooth="yes"/>
      <point x="826.0" y="479.0"/>
      <point x="762.0" y="419.0"/>
      <point x="762" y="337" type="curve" smooth="yes"/>
      <point x="762.0" y="260.0"/>
      <point x="806" y="209"/>
      <point x="888" y="180" type="curve" smooth="yes"/>
      <point x="954" y="156"/>
      <point x="983.0" y="130.0"/>
      <point x="983" y="97" type="curve" smooth="yes"/>
      <point x="983" y="65"/>
      <point x="959.0" y="41.0"/>
    </contour>
    <contour>
      <point x="495" y="414" type="curve" smooth="yes"/>
      <point x="495.0" y="547.0"/>
      <point x="400.0" y="635"/>
      <point x="258" y="635" type="curve" smooth="yes"/>
      <point x="65" y="635" type="line" smooth="yes"/>
      <point x="45" y="635"/>
      <point x="32.0" y="626"/>
      <point x="32" y="607" type="curve" smooth="yes"/>
      <point x="32.0" y="591"/>
      <point x="38" y="580"/>
      <point x="53" y="576" type="curve" smooth="yes"/>
      <point x="72" y="571" type="line" smooth="yes"/>
      <point x="90" y="566"/>
      <point x="99.0" y="550.0"/>
      <point x="99" y="529" type="curve" smooth="yes"/>
      <point x="99" y="105" type="line" smooth="yes"/>
      <point x="99.0" y="85.0"/>
      <point x="90" y="71"/>
      <point x="72" y="65" type="curve" smooth="yes"/>
      <point x="53" y="59" type="line" smooth="yes"/>
      <point x="39" y="54"/>
      <point x="32.0" y="44"/>
      <point x="32" y="28" type="curve" smooth="yes"/>
      <point x="32.0" y="9"/>
      <point x="45" y="0"/>
      <point x="65" y="0" type="curve" smooth="yes"/>
      <point x="263" y="0" type="line" smooth="yes"/>
      <point x="283.0" y="0.0"/>
      <point x="296.0" y="9.0"/>
      <point x="296" y="28" type="curve" smooth="yes"/>
      <point x="296.0" y="44.0"/>
      <point x="286.0" y="53.0"/>
      <point x="265" y="59" type="curve" smooth="yes"/>
      <point x="244" y="65" type="line" smooth="yes"/>
      <point x="227" y="70"/>
      <point x="216" y="85"/>
      <point x="216" y="105" type="curve" smooth="yes"/>
      <point x="216" y="565" type="line"/>
      <point x="254" y="565" type="line" smooth="yes"/>
      <point x="323.2307692307692" y="565"/>
      <point x="374.0" y="504.85185185185185"/>
      <point x="374" y="420" type="curve" smooth="yes"/>
      <point x="374.0" y="334.0526315789474"/>
      <point x="331.0869565217391" y="278.0"/>
      <point x="269" y="278" type="curve" smooth="yes"/>
      <point x="201.0854700854701" y="278.0"/>
      <point x="165.63367950291598" y="287.577546998056"/>
      <point x="132" y="310" type="curve"/>
      <point x="125" y="249" type="line"/>
      <point x="158.174427573111" y="224.6720864463853"/>
      <point x="194.52380952380952" y="213.0"/>
      <point x="271" y="213" type="curve" smooth="yes"/>
      <point x="404.0" y="213.0"/>
      <point x="495.0" y="294.0"/>
    </contour>
  </outline>
</glyph>
<glyph name="kip" format="2">
  <advance width="712"/>
  <unicode hex="20AD"/>
  <outline>
    <contour>
      <point x="628" y="272" type="curve" smooth="yes"/>
      <point x="667" y="272"/>
      <point x="684" y="295"/>
      <point x="684" y="319" type="curve" smooth="yes"/>
      <point x="684" y="350"/>
      <point x="665" y="372"/>
      <point x="628" y="372" type="curve" smooth="yes"/>
      <point x="577" y="372"/>
      <point x="537" y="337"/>
      <point x="321" y="337" type="curve" smooth="yes"/>
      <point x="161" y="337"/>
      <point x="126" y="369"/>
      <point x="76" y="369" type="curve" smooth="yes"/>
      <point x="39" y="369"/>
      <point x="20" y="342"/>
      <point x="20" y="315" type="curve" smooth="yes"/>
      <point x="20" y="291"/>
      <point x="37" y="268"/>
      <point x="74" y="268" type="curve" smooth="yes"/>
      <point x="121" y="268"/>
      <point x="157" y="300"/>
      <point x="320" y="300" type="curve" smooth="yes"/>
      <point x="535" y="300"/>
      <point x="581" y="272"/>
    </contour>
    <contour>
      <point x="262" y="115" type="curve" smooth="yes"/>
      <point x="262" y="521" type="line" smooth="yes"/>
      <point x="262" y="545"/>
      <point x="273" y="556"/>
      <point x="296" y="562" type="curve" smooth="yes"/>
      <point x="316" y="566" type="line" smooth="yes"/>
      <point x="338" y="571"/>
      <point x="349" y="582"/>
      <point x="349" y="604" type="curve" smooth="yes"/>
      <point x="349" y="626"/>
      <point x="337" y="636"/>
      <point x="312" y="636" type="curve" smooth="yes"/>
      <point x="64" y="636" type="line" smooth="yes"/>
      <point x="37" y="636"/>
      <point x="26" y="626"/>
      <point x="26" y="604" type="curve" smooth="yes"/>
      <point x="26" y="582"/>
      <point x="36" y="573"/>
      <point x="57" y="567" type="curve" smooth="yes"/>
      <point x="79" y="562" type="line" smooth="yes"/>
      <point x="101" y="556"/>
      <point x="113" y="545"/>
      <point x="113" y="521" type="curve" smooth="yes"/>
      <point x="113" y="115" type="line" smooth="yes"/>
      <point x="113" y="91"/>
      <point x="101" y="80"/>
      <point x="79" y="75" type="curve" smooth="yes"/>
      <point x="62" y="70" type="line" smooth="yes"/>
      <point x="39" y="64"/>
      <point x="27" y="54"/>
      <point x="27" y="33" type="curve" smooth="yes"/>
      <point x="27" y="10"/>
      <point x="37" y="0"/>
      <point x="64" y="0" type="curve" smooth="yes"/>
      <point x="311" y="0" type="line" smooth="yes"/>
      <point x="337" y="0"/>
      <point x="349" y="10"/>
      <point x="349" y="33" type="curve" smooth="yes"/>
      <point x="349" y="55"/>
      <point x="339" y="65"/>
      <point x="317" y="70" type="curve" smooth="yes"/>
      <point x="296" y="75" type="line" smooth="yes"/>
      <point x="273" y="79"/>
      <point x="262" y="91"/>
    </contour>
    <contour>
      <point x="244" y="297" type="line" smooth="yes"/>
      <point x="433" y="130" type="line" smooth="yes"/>
      <point x="447.9943771885478" y="116.75100005033082"/>
      <point x="451.0" y="109.0"/>
      <point x="451" y="95" type="curve" smooth="yes"/>
      <point x="451.0" y="83.0"/>
      <point x="447.34925556682117" y="77.24011320218955"/>
      <point x="431" y="66" type="curve" smooth="yes"/>
      <point x="417" y="57"/>
      <point x="409" y="49"/>
      <point x="409" y="31" type="curve" smooth="yes"/>
      <point x="409" y="10"/>
      <point x="423.0" y="0"/>
      <point x="444" y="0" type="curve" smooth="yes"/>
      <point x="651" y="0" type="line" smooth="yes"/>
      <point x="683.695652173913" y="0"/>
      <point x="698.0" y="16.57894736842105"/>
      <point x="698" y="42" type="curve" smooth="yes"/>
      <point x="698.0" y="69.6923076923077"/>
      <point x="687.8914985902487" y="80.05425070487561"/>
      <point x="668" y="90" type="curve" smooth="yes"/>
      <point x="654.6683761948323" y="96.15305714084664"/>
      <point x="642" y="100"/>
      <point x="631" y="109" type="curve" smooth="yes"/>
      <point x="347" y="339" type="line"/>
      <point x="343" y="301" type="line"/>
      <point x="545" y="477" type="line" smooth="yes"/>
      <point x="583" y="510"/>
      <point x="616.8642889281999" y="531.9547629760666"/>
      <point x="644" y="541" type="curve" smooth="yes"/>
      <point x="674.6418014034907" y="550.8844520656421"/>
      <point x="693.0" y="566.925925925926"/>
      <point x="693" y="591" type="curve" smooth="yes"/>
      <point x="693.0" y="615.1463414634146"/>
      <point x="678.0" y="636"/>
      <point x="648" y="636" type="curve" smooth="yes"/>
      <point x="446" y="636" type="line" smooth="yes"/>
      <point x="423.0" y="636.0"/>
      <point x="407" y="626"/>
      <point x="407" y="605" type="curve" smooth="yes"/>
      <point x="407" y="593"/>
      <point x="410" y="582"/>
      <point x="431" y="572" type="curve" smooth="yes"/>
      <point x="454" y="561" type="line" smooth="yes"/>
      <point x="473" y="552"/>
      <point x="478.0" y="536"/>
      <point x="478" y="518" type="curve" smooth="yes"/>
      <point x="478.0" y="497.71830985915494"/>
      <point x="459" y="485"/>
      <point x="428" y="458" type="curve" smooth="yes"/>
    </contour>
  </outline>
</glyph>
<glyph name="indianrupee" format="2">
  <advance width="493"/>
  <unicode hex="20B9"/>
  <outline>
    <contour>
      <point x="73" y="267" type="line"/>
      <point x="191.0" y="108" type="line" smooth="yes"/>
      <point x="198" y="98"/>
      <point x="202" y="90"/>
      <point x="202" y="80" type="curve" smooth="yes"/>
      <point x="202" y="69"/>
      <point x="198" y="63"/>
      <point x="186" y="56" type="curve" smooth="yes"/>
      <point x="171" y="50"/>
      <point x="163" y="42"/>
      <point x="163" y="27" type="curve" smooth="yes"/>
      <point x="163" y="8"/>
      <point x="178" y="0.0"/>
      <point x="200" y="0.0" type="curve" smooth="yes"/>
      <point x="392" y="0.0" type="line" smooth="yes"/>
      <point x="418" y="0.0"/>
      <point x="429" y="11"/>
      <point x="429" y="30" type="curve" smooth="yes"/>
      <point x="429" y="46"/>
      <point x="418" y="51.0"/>
      <point x="400" y="56" type="curve" smooth="yes"/>
      <point x="379" y="65"/>
      <point x="370" y="82"/>
      <point x="354" y="102.0" type="curve" smooth="yes"/>
      <point x="208" y="294" type="line"/>
    </contour>
    <contour>
      <point x="73" y="588" type="line"/>
      <point x="135" y="588" type="line" smooth="yes"/>
      <point x="202" y="588"/>
      <point x="249.0" y="535.8974358974359"/>
      <point x="249" y="461" type="curve" smooth="yes"/>
      <point x="249" y="378"/>
      <point x="178" y="321"/>
      <point x="95" y="321" type="curve" smooth="yes"/>
      <point x="76" y="321"/>
      <point x="54" y="305"/>
      <point x="55" y="286" type="curve" smooth="yes"/>
      <point x="56" y="266"/>
      <point x="74" y="251"/>
      <point x="97" y="251" type="curve" smooth="yes"/>
      <point x="292" y="251"/>
      <point x="393" y="328"/>
      <point x="393" y="445" type="curve" smooth="yes"/>
      <point x="393" y="567"/>
      <point x="284" y="649"/>
      <point x="141" y="649" type="curve" smooth="yes"/>
      <point x="81" y="649" type="line"/>
    </contour>
    <contour>
      <point x="439.0" y="462.0" type="curve" smooth="yes"/>
      <point x="464.0" y="462.0"/>
      <point x="475.0" y="475.0"/>
      <point x="475.0" y="489.0" type="curve" smooth="yes"/>
      <point x="475.0" y="508.0"/>
      <point x="463.0" y="522.0"/>
      <point x="439.0" y="522.0" type="curve" smooth="yes"/>
      <point x="415" y="522.0"/>
      <point x="391" y="507.0"/>
      <point x="254.0" y="507.0" type="curve" smooth="yes"/>
      <point x="132" y="507.0"/>
      <point x="108" y="519.0"/>
      <point x="75.0" y="519.0" type="curve" smooth="yes"/>
      <point x="51.0" y="519.0"/>
      <point x="39.0" y="502.0"/>
      <point x="39.0" y="485.0" type="curve" smooth="yes"/>
      <point x="39.0" y="471.0"/>
      <point x="50.0" y="458.0"/>
      <point x="73.0" y="458.0" type="curve" smooth="yes"/>
      <point x="103" y="458.0"/>
      <point x="129" y="470.0"/>
      <point x="254.0" y="470.0" type="curve" smooth="yes"/>
      <point x="389" y="470.0"/>
      <point x="416.72251308900525" y="462.0"/>
    </contour>
    <contour>
      <point x="438.0" y="593.0" type="curve" smooth="yes"/>
      <point x="463.0" y="593.0"/>
      <point x="474.0" y="606.0"/>
      <point x="474.0" y="620.0" type="curve" smooth="yes"/>
      <point x="474.0" y="639.0"/>
      <point x="462.0" y="652.0"/>
      <point x="438.0" y="653.0" type="curve" smooth="yes"/>
      <point x="415.6881320053615" y="653.9700812171583"/>
      <point x="388.3539823008849" y="638.0"/>
      <point x="251.0" y="638.0" type="curve" smooth="yes"/>
      <point x="120.75999999999999" y="638.0"/>
      <point x="97.26086956521739" y="650.0"/>
      <point x="75.0" y="650.0" type="curve" smooth="yes"/>
      <point x="51.0" y="650.0"/>
      <point x="39.0" y="633.0"/>
      <point x="39.0" y="616.0" type="curve" smooth="yes"/>
      <point x="39.0" y="602.0"/>
      <point x="50.0" y="589.0"/>
      <point x="73.0" y="589.0" type="curve" smooth="yes"/>
      <point x="92.54509803921569" y="589.0"/>
      <point x="118.20634920634922" y="601.0"/>
      <point x="251.0" y="601.0" type="curve" smooth="yes"/>
      <point x="388.3539823008849" y="601.0"/>
      <point x="415.7150259067357" y="593.0"/>
    </contour>
  </outline>
</glyph>
<glyph name="turkishlira" format="2">
  <advance width="585"/>
  <unicode hex="20BA"/>
  <outline>
    <contour>
      <point x="348" y="71" type="curve" smooth="yes"/>
      <point x="305.0" y="71.0"/>
      <point x="281.0" y="95.0"/>
      <point x="281" y="137" type="curve" smooth="yes"/>
      <point x="281" y="515" type="line" smooth="yes"/>
      <point x="281" y="547"/>
      <point x="294" y="562"/>
      <point x="321" y="568" type="curve" smooth="yes"/>
      <point x="359" y="577" type="line" smooth="yes"/>
      <point x="380" y="582"/>
      <point x="391.0" y="594.0"/>
      <point x="391" y="606" type="curve" smooth="yes"/>
      <point x="391.0" y="626.0"/>
      <point x="372.0" y="635.0"/>
      <point x="352" y="635" type="curve" smooth="yes"/>
      <point x="82" y="635" type="line" smooth="yes"/>
      <point x="59" y="635"/>
      <point x="44.0" y="626.0"/>
      <point x="44" y="606" type="curve" smooth="yes"/>
      <point x="44.0" y="587.0"/>
      <point x="56.468890899504146" y="580.6475303056933"/>
      <point x="84" y="573" type="curve" smooth="yes"/>
      <point x="102" y="568" type="line" smooth="yes"/>
      <point x="125.24353599545354" y="561.5434622234851"/>
      <point x="136" y="543.7446808510638"/>
      <point x="136" y="511" type="curve" smooth="yes"/>
      <point x="136" y="131" type="line" smooth="yes"/>
      <point x="136" y="96"/>
      <point x="125.18559609996966" y="77.46814421362672"/>
      <point x="108" y="72" type="curve" smooth="yes"/>
      <point x="86" y="65" type="line" smooth="yes"/>
      <point x="66.11940165863724" y="58.67435507320276"/>
      <point x="52.0" y="47.0"/>
      <point x="52" y="30" type="curve" smooth="yes"/>
      <point x="52.0" y="12.0"/>
      <point x="67" y="0"/>
      <point x="91" y="0" type="curve" smooth="yes"/>
      <point x="340" y="0" type="line" smooth="yes"/>
      <point x="481.0" y="0"/>
      <point x="575.0" y="77.7948717948718"/>
      <point x="575" y="205" type="curve" smooth="yes"/>
      <point x="575.0" y="287.29661016949154"/>
      <point x="535.9770114942529" y="322.0"/>
      <point x="478" y="322" type="curve" smooth="yes"/>
      <point x="422.6666666666667" y="322.0"/>
      <point x="395.0" y="294.6923076923077"/>
      <point x="395" y="251" type="curve" smooth="yes"/>
      <point x="395.0" y="225.98039215686273"/>
      <point x="409.48246725080844" y="205.50974041621754"/>
      <point x="432" y="193" type="curve" smooth="yes"/>
      <point x="441" y="188" type="line" smooth="yes"/>
      <point x="456" y="180"/>
      <point x="460" y="169"/>
      <point x="460" y="154" type="curve" smooth="yes"/>
      <point x="460.0" y="99.53125"/>
      <point x="417.0" y="71.0"/>
    </contour>
    <contour>
      <point x="68" y="357" type="curve" smooth="yes"/>
      <point x="76" y="357"/>
      <point x="90" y="362"/>
      <point x="96" y="364" type="curve" smooth="yes"/>
      <point x="446" y="467" type="line" smooth="yes"/>
      <point x="464" y="472"/>
      <point x="471" y="483"/>
      <point x="471" y="495" type="curve" smooth="yes"/>
      <point x="471" y="502"/>
      <point x="465" y="510"/>
      <point x="455" y="510" type="curve" smooth="yes"/>
      <point x="448" y="510"/>
      <point x="442" y="508"/>
      <point x="435" y="506" type="curve" smooth="yes"/>
      <point x="76" y="401" type="line" smooth="yes"/>
      <point x="59" y="396"/>
      <point x="50" y="385"/>
      <point x="50" y="374" type="curve" smooth="yes"/>
      <point x="50" y="364"/>
      <point x="58" y="357"/>
    </contour>
    <contour>
      <point x="68" y="257" type="curve" smooth="yes"/>
      <point x="76" y="257"/>
      <point x="90" y="262"/>
      <point x="96" y="264" type="curve" smooth="yes"/>
      <point x="446" y="367" type="line" smooth="yes"/>
      <point x="464" y="372"/>
      <point x="471" y="383"/>
      <point x="471" y="395" type="curve" smooth="yes"/>
      <point x="471" y="402"/>
      <point x="465" y="410"/>
      <point x="455" y="410" type="curve" smooth="yes"/>
      <point x="448" y="410"/>
      <point x="442" y="408"/>
      <point x="435" y="406" type="curve" smooth="yes"/>
      <point x="76" y="301" type="line" smooth="yes"/>
      <point x="59" y="296"/>
      <point x="50" y="285"/>
      <point x="50" y="274" type="curve" smooth="yes"/>
      <point x="50" y="264"/>
      <point x="58" y="257"/>
    </contour>
  </outline>
</glyph>
<glyph name="ruble" format="2">
  <advance width="604"/>
  <unicode hex="20BD"/>
  <outline>
    <contour>
      <point x="42.0" y="182" type="curve" smooth="yes"/>
      <point x="42.0" y="200"/>
      <point x="56" y="213"/>
      <point x="74" y="213" type="curve" smooth="yes"/>
      <point x="372" y="213" type="line" smooth="yes"/>
      <point x="391.0" y="213.0"/>
      <point x="405" y="200"/>
      <point x="405" y="182" type="curve" smooth="yes"/>
      <point x="405" y="162"/>
      <point x="391.0" y="150.0"/>
      <point x="372" y="150.0" type="curve" smooth="yes"/>
      <point x="73" y="150.0" type="line" smooth="yes"/>
      <point x="54" y="150"/>
      <point x="42.0" y="162"/>
    </contour>
    <contour>
      <point x="73" y="263.0" type="line" smooth="yes"/>
      <point x="54" y="263"/>
      <point x="42.0" y="275"/>
      <point x="42.0" y="295" type="curve" smooth="yes"/>
      <point x="42.0" y="313"/>
      <point x="56" y="326"/>
      <point x="74" y="326" type="curve" smooth="yes"/>
      <point x="316" y="326" type="line" smooth="yes"/>
      <point x="393.0" y="326"/>
      <point x="443.0" y="373.0"/>
      <point x="443" y="444" type="curve" smooth="yes"/>
      <point x="443.0" y="521.0"/>
      <point x="388.0" y="578.0"/>
      <point x="308" y="578" type="curve" smooth="yes"/>
      <point x="259" y="578" type="line"/>
      <point x="259" y="106" type="line" smooth="yes"/>
      <point x="259" y="86"/>
      <point x="271" y="70"/>
      <point x="294" y="65" type="curve" smooth="yes"/>
      <point x="316" y="60" type="line" smooth="yes"/>
      <point x="336" y="55"/>
      <point x="344.0" y="44.0"/>
      <point x="344" y="28" type="curve" smooth="yes"/>
      <point x="344.0" y="10.0"/>
      <point x="333.0" y="0.0"/>
      <point x="314" y="0" type="curve" smooth="yes"/>
      <point x="67" y="0" type="line" smooth="yes"/>
      <point x="48" y="0"/>
      <point x="38" y="10"/>
      <point x="38" y="28" type="curve" smooth="yes"/>
      <point x="38" y="44"/>
      <point x="45" y="56"/>
      <point x="64" y="60" type="curve" smooth="yes"/>
      <point x="88" y="65" type="line" smooth="yes"/>
      <point x="109" y="70"/>
      <point x="121" y="86"/>
      <point x="121" y="106" type="curve" smooth="yes"/>
      <point x="121" y="542" type="line" smooth="yes"/>
      <point x="121" y="564"/>
      <point x="109" y="579"/>
      <point x="88" y="584" type="curve" smooth="yes"/>
      <point x="64" y="589" type="line" smooth="yes"/>
      <point x="45" y="593"/>
      <point x="38" y="604"/>
      <point x="38" y="621" type="curve" smooth="yes"/>
      <point x="38" y="639"/>
      <point x="48" y="649"/>
      <point x="67" y="649" type="curve" smooth="yes"/>
      <point x="322" y="649" type="line" smooth="yes"/>
      <point x="486.19607843137254" y="649.0"/>
      <point x="587.0" y="567.0"/>
      <point x="587" y="433" type="curve" smooth="yes"/>
      <point x="587.0" y="322.0"/>
      <point x="497.0" y="263.0"/>
      <point x="339" y="263" type="curve" smooth="yes"/>
    </contour>
  </outline>
</glyph>
<glyph name="approxequal" format="2">
  <advance width="507"/>
  <unicode hex="2248"/>
  <outline>
    <contour>
      <point x="40" y="376" type="curve" smooth="yes"/>
      <point x="40.0" y="426.7692307692308"/>
      <point x="81.0" y="464.0"/>
      <point x="154" y="464" type="curve" smooth="yes"/>
      <point x="222.0" y="464.0"/>
      <point x="314.0" y="418.0"/>
      <point x="365" y="418" type="curve" smooth="yes"/>
      <point x="409.0" y="418.0"/>
      <point x="394.0" y="462.0"/>
      <point x="427" y="462" type="curve" smooth="yes"/>
      <point x="453.0" y="462.0"/>
      <point x="467.0" y="436.625"/>
      <point x="467" y="404" type="curve" smooth="yes"/>
      <point x="467" y="353"/>
      <point x="423" y="330"/>
      <point x="361" y="330" type="curve" smooth="yes"/>
      <point x="280.0" y="330.0"/>
      <point x="186.0" y="374.0"/>
      <point x="151" y="374" type="curve" smooth="yes"/>
      <point x="108.0" y="374.0"/>
      <point x="121.0" y="331.0"/>
      <point x="86" y="331" type="curve" smooth="yes"/>
      <point x="59" y="331"/>
      <point x="40" y="351"/>
    </contour>
    <contour>
      <point x="40" y="198" type="curve" smooth="yes"/>
      <point x="40.0" y="253.6818181818182"/>
      <point x="81.0" y="296.0"/>
      <point x="154" y="296" type="curve" smooth="yes"/>
      <point x="222.0" y="296.0"/>
      <point x="314.0" y="250.0"/>
      <point x="365" y="250" type="curve" smooth="yes"/>
      <point x="409.0" y="250.0"/>
      <point x="394.0" y="294.0"/>
      <point x="427" y="294" type="curve" smooth="yes"/>
      <point x="453.0" y="294.0"/>
      <point x="467.0" y="273"/>
      <point x="467" y="246" type="curve" smooth="yes"/>
      <point x="467.0" y="188.10810810810813"/>
      <point x="422.6279069767442" y="162.0"/>
      <point x="361" y="162" type="curve" smooth="yes"/>
      <point x="280.0" y="162.0"/>
      <point x="186.0" y="206.0"/>
      <point x="151" y="206" type="curve" smooth="yes"/>
      <point x="108.0" y="206.0"/>
      <point x="121.0" y="163.0"/>
      <point x="86" y="163" type="curve" smooth="yes"/>
      <point x="59.46153846153845" y="163.0"/>
      <point x="40.0" y="178.0"/>
    </contour>
  </outline>
</glyph>
<glyph name="commaaccentcomb" format="2">
  <outline>
    <contour>
      <point x="81" y="-150" type="curve" smooth="yes"/>
      <point x="94.0" y="-150" type="line" smooth="yes"/>
      <point x="105.0" y="-150.0"/>
      <point x="108" y="-156.0"/>
      <point x="108" y="-166" type="curve" smooth="yes"/>
      <point x="108.0" y="-182.54545454545456"/>
      <point x="89.0" y="-194.0"/>
      <point x="60" y="-194" type="curve" smooth="yes"/>
      <point x="36.0" y="-194.0"/>
      <point x="30.0" y="-207.0"/>
      <point x="30" y="-220.0" type="curve" smooth="yes"/>
      <point x="30.0" y="-234.28571428571428"/>
      <point x="42.0" y="-245.0"/>
      <point x="62" y="-245.0" type="curve" smooth="yes"/>
      <point x="130.0" y="-245.0"/>
      <point x="182.0" y="-203.0"/>
      <point x="182" y="-140" type="curve" smooth="yes"/>
      <point x="182.0" y="-83.0"/>
      <point x="147.53191489361703" y="-44.0"/>
      <point x="92" y="-44" type="curve" smooth="yes"/>
      <point x="55.80645161290323" y="-44.0"/>
      <point x="26.0" y="-71.0"/>
      <point x="26" y="-101" type="curve" smooth="yes"/>
      <point x="26.0" y="-129.0"/>
      <point x="49" y="-150"/>
    </contour>
  </outline>
</glyph>
<glyph name="dotaccentcomb" format="2">
  <outline>
    <contour>
      <point x="110.0" y="466" type="curve" smooth="yes"/>
      <point x="161" y="466"/>
      <point x="202" y="508"/>
      <point x="202" y="559" type="curve" smooth="yes"/>
      <point x="202" y="610"/>
      <point x="161" y="650.0"/>
      <point x="110.0" y="650.0" type="curve" smooth="yes"/>
      <point x="60" y="650.0"/>
      <point x="19" y="610"/>
      <point x="19" y="559" type="curve" smooth="yes"/>
      <point x="19" y="508"/>
      <point x="60" y="466"/>
    </contour>
  </outline>
</glyph>
<glyph name="hookabovecomb" format="2">
  <anchor x="155" y="448" name="center"/>
  <outline>
    <contour>
      <point x="125" y="562" type="curve" smooth="yes"/>
      <point x="125" y="575"/>
      <point x="134" y="588"/>
      <point x="155" y="593" type="curve" smooth="yes"/>
      <point x="178.0" y="600.0"/>
      <point x="187.0" y="613.0"/>
      <point x="187.0" y="637.0" type="curve" smooth="yes"/>
      <point x="187.0" y="669"/>
      <point x="169.0" y="688.0"/>
      <point x="145" y="688" type="curve" smooth="yes"/>
      <point x="123" y="688"/>
      <point x="110" y="675"/>
      <point x="110" y="657" type="curve" smooth="yes"/>
      <point x="110" y="630" type="line" smooth="yes"/>
      <point x="110" y="604"/>
      <point x="92" y="586.0"/>
      <point x="67" y="586" type="curve" smooth="yes"/>
      <point x="43" y="586.0"/>
      <point x="21.0" y="611"/>
      <point x="21" y="639" type="curve" smooth="yes"/>
      <point x="21.0" y="688"/>
      <point x="77" y="733.0"/>
      <point x="160" y="733" type="curve" smooth="yes"/>
      <point x="238.0" y="733.0"/>
      <point x="284.0" y="699"/>
      <point x="284.0" y="634.0" type="curve" smooth="yes"/>
      <point x="284.0" y="573.0"/>
      <point x="230.0" y="535.0"/>
      <point x="167" y="535.0" type="curve" smooth="yes"/>
      <point x="135" y="535.0"/>
      <point x="125.0" y="547.0"/>
    </contour>
  </outline>
</glyph>
<glyph name="tildecomb.case" format="2">
  <anchor x="196" y="694" name="center"/>
  <outline>
    <contour>
      <point x="23.0" y="749" type="curve" smooth="yes"/>
      <point x="23.0" y="806.0"/>
      <point x="68.34328358208954" y="848.0"/>
      <point x="147" y="848" type="curve" smooth="yes"/>
      <point x="202.18032786885246" y="848.0"/>
      <point x="236.3861844971417" y="839.1021179043911"/>
      <point x="279" y="810" type="curve" smooth="yes"/>
      <point x="301.0" y="794.0"/>
      <point x="321.0" y="784.0"/>
      <point x="338" y="784.0" type="curve" smooth="yes"/>
      <point x="359.875" y="784.0"/>
      <point x="373.0" y="796.0"/>
      <point x="373" y="819" type="curve" smooth="yes"/>
      <point x="373.0" y="837.0"/>
      <point x="385" y="848"/>
      <point x="405" y="848" type="curve" smooth="yes"/>
      <point x="427.0" y="848.0"/>
      <point x="439.0" y="834.0"/>
      <point x="439" y="809" type="curve" smooth="yes"/>
      <point x="439.0" y="741.0"/>
      <point x="388.94522771140254" y="706.0555448258712"/>
      <point x="320" y="707" type="curve" smooth="yes"/>
      <point x="256.81904316825137" y="708.0530159471958"/>
      <point x="211.0507853295884" y="722.2753204623529"/>
      <point x="181" y="743" type="curve" smooth="yes"/>
      <point x="158.0" y="759.0"/>
      <point x="144.0" y="770.0"/>
      <point x="122" y="770" type="curve" smooth="yes"/>
      <point x="101.84" y="770.0"/>
      <point x="94.0" y="760.0"/>
      <point x="94" y="735" type="curve" smooth="yes"/>
      <point x="94.0" y="713"/>
      <point x="77" y="706"/>
      <point x="59" y="706.0" type="curve" smooth="yes"/>
      <point x="38.0" y="706.0"/>
      <point x="23" y="718"/>
    </contour>
  </outline>
</glyph>
<glyph name="tildecomb" format="2">
  <outline>
    <contour>
      <point x="38" y="562" type="curve" smooth="yes"/>
      <point x="38.0" y="632.0"/>
      <point x="78.0" y="684.0"/>
      <point x="146" y="684.0" type="curve" smooth="yes"/>
      <point x="192.4867256637168" y="684.0"/>
      <point x="219.67728964772277" y="672.7410368597339"/>
      <point x="249" y="648" type="curve" smooth="yes"/>
      <point x="277.0050028894438" y="624.6624975921302"/>
      <point x="291.14285714285717" y="618.0"/>
      <point x="308" y="618.0" type="curve" smooth="yes"/>
      <point x="327.1904761904762" y="618.0"/>
      <point x="339.0" y="628.0"/>
      <point x="339.0" y="648" type="curve" smooth="yes"/>
      <point x="339.0" y="672.0"/>
      <point x="351" y="684.0"/>
      <point x="371" y="684" type="curve" smooth="yes"/>
      <point x="388" y="684.0"/>
      <point x="404.0" y="675.0"/>
      <point x="404.0" y="639" type="curve" smooth="yes"/>
      <point x="404.0" y="564.0"/>
      <point x="354.54455445544556" y="528.0"/>
      <point x="293" y="528.0" type="curve" smooth="yes"/>
      <point x="250.19642857142856" y="528.0"/>
      <point x="222.2808887335695" y="535.0815493350424"/>
      <point x="191" y="561" type="curve" smooth="yes"/>
      <point x="157.62774911191127" y="587.2210542692126"/>
      <point x="144.92857142857144" y="594.0"/>
      <point x="131" y="594.0" type="curve" smooth="yes"/>
      <point x="114.1" y="594.0"/>
      <point x="105.0" y="582.0"/>
      <point x="105" y="556" type="curve" smooth="yes"/>
      <point x="105.0" y="534"/>
      <point x="90" y="523.0"/>
      <point x="71" y="523" type="curve" smooth="yes"/>
      <point x="55.0" y="523.0"/>
      <point x="38.0" y="531.0"/>
    </contour>
  </outline>
</glyph>
